<svg height="512pt" viewBox="0 0 512 512" width="512pt" xmlns="http://www.w3.org/2000/svg"><g fill-rule="evenodd"><path d="m69.800781 69.800781c79.734375-79.734375 209.007813-79.734375 288.738281 0 70.949219 70.945313 78.765626 181.113281 23.457032 260.703125l109.363281 109.363282c14.15625 14.160156 14.15625 37.332031 0 51.492187-14.160156 14.160156-37.332031 14.160156-51.492187 0l-109.363282-109.363281c-79.589844 55.308594-189.757812 47.488281-260.703125-23.457032-79.734375-79.730468-79.734375-209.003906 0-288.738281zm0 0" fill="#d9f9f6"/><path d="m325.816406 102.519531c-61.664062-61.664062-161.636718-61.664062-223.300781 0-61.664063 61.664063-61.664063 161.636719 0 223.300781 61.664063 61.664063 161.636719 61.664063 223.300781 0 61.664063-61.664062 61.664063-161.636718 0-223.300781zm0 0" fill="#67e4dc"/><path d="m214.171875 146.589844c54.875 0 102.050781 32.714844 122.871094 79.582031-20.820313 46.863281-67.996094 79.578125-122.871094 79.578125s-102.054687-32.714844-122.875-79.578125c20.820313-46.867187 68-79.582031 122.875-79.582031zm0 0" fill="#ffdda0"/><path d="m214.171875 270.128906c24.210937 0 43.957031-19.746094 43.957031-43.957031s-19.746094-43.960937-43.957031-43.960937-43.960937 19.75-43.960937 43.960937 19.75 43.957031 43.960937 43.957031zm0 0" fill="#9de754"/><path d="m11.964844 184.171875c5.414062 1.070313 10.675781-2.453125 11.75-7.871094 7.464844-37.738281 25.847656-72.121093 53.15625-99.429687 36.675781-36.675782 85.433594-56.871094 137.300781-56.871094 51.863281 0 100.625 20.195312 137.296875 56.871094 27.929688 27.929687 46.472656 63.148437 53.617188 101.851562.890624 4.816406 5.09375 8.183594 9.820312 8.183594.605469 0 1.214844-.054688 1.828125-.167969 5.429687-1 9.019531-6.21875 8.015625-11.648437-7.882812-42.699219-28.335938-81.554688-59.140625-112.359375-40.449219-40.453125-94.230469-62.730469-151.4375-62.730469s-110.992187 22.277344-151.445313 62.730469c-30.117187 30.121093-50.394531 68.050781-58.628906 109.691406-1.074218 5.417969 2.449219 10.679687 7.867188 11.75zm0 0"/><path d="m498.429688 432.796875-103.570313-103.570313c13.808594-21.625 23.5-45.351562 28.839844-70.648437 1.140625-5.402344-2.316407-10.707031-7.722657-11.847656-5.410156-1.144531-10.707031 2.316406-11.847656 7.71875-5.363281 25.421875-15.574218 49.089843-30.347656 70.347656-2.761719 3.976563-2.28125 9.355469 1.140625 12.777344l109.363281 109.363281c10.296875 10.296875 10.296875 27.050781 0 37.351562-10.296875 10.296876-27.054687 10.296876-37.347656 0l-109.363281-109.363281c-3.421875-3.421875-8.804688-3.902343-12.777344-1.144531-77.128906 53.597656-181.398437 44.214844-247.925781-22.3125-27.3125-27.3125-45.695313-61.695312-53.15625-99.429688-1.070313-5.417968-6.324219-8.941406-11.75-7.871093-5.417969 1.074219-8.941406 6.332031-7.867188 11.75 8.230469 41.636719 28.507813 79.566406 58.632813 109.691406 35.71875 35.722656 83.074219 57.726563 133.339843 61.96875 46.851563 3.953125 93.8125-7.640625 133.15625-32.722656l103.570313 103.574219c9.046875 9.046874 20.929687 13.570312 32.816406 13.570312 11.882813 0 23.769531-4.523438 32.816407-13.570312 18.09375-18.09375 18.09375-47.539063 0-65.632813zm0 0"/><path d="m214.171875 46.269531c-44.847656 0-87.011719 17.464844-118.726563 49.179688-31.710937 31.710937-49.175781 73.875-49.175781 118.722656s17.464844 87.007813 49.175781 118.722656c31.714844 31.710938 73.878907 49.175781 118.726563 49.175781s87.007813-17.464843 118.722656-49.175781c65.460938-65.464843 65.460938-171.984375 0-237.445312-31.714843-31.714844-73.875-49.179688-118.722656-49.179688zm104.578125 272.480469c-27.933594 27.9375-65.074219 43.320312-104.578125 43.320312-39.507813 0-76.648437-15.386718-104.582031-43.320312-27.9375-27.933594-43.320313-65.074219-43.320313-104.578125 0-39.507813 15.386719-76.648437 43.320313-104.582031 27.933594-27.9375 65.074218-43.320313 104.582031-43.320313 39.503906 0 76.644531 15.386719 104.578125 43.320313 57.667969 57.664062 57.667969 151.496094 0 209.160156zm0 0"/><path d="m284.144531 154.605469 10.34375-17.914063c2.761719-4.78125 1.121094-10.898437-3.660156-13.660156-4.785156-2.761719-10.898437-1.121094-13.660156 3.660156l-11.238281 19.464844c-13.214844-5.058594-27.265626-8.210938-41.757813-9.210938v-28.34375c0-5.523437-4.480469-10-10-10-5.523437 0-10 4.476563-10 10v28.34375c-14.496094 1-28.546875 4.152344-41.761719 9.210938l-11.238281-19.464844c-2.761719-4.78125-8.878906-6.421875-13.660156-3.660156s-6.421875 8.878906-3.660157 13.660156l10.34375 17.914063c-13.480468 7.433593-25.730468 16.996093-36.238281 28.34375l-13.4375-7.757813c-4.785156-2.761718-10.898437-1.121094-13.660156 3.660156s-1.121094 10.898438 3.660156 13.65625l10.78125 6.226563c-5.046875 7.285156-9.460937 15.09375-13.140625 23.378906-1.148437 2.582031-1.148437 5.53125 0 8.117188 23.078125 51.953125 74.894532 85.519531 132.011719 85.519531s108.933594-33.566406 132.011719-85.519531c1.144531-2.585938 1.144531-5.535157 0-8.117188-4.105469-9.242187-9.136719-17.890625-14.929688-25.882812l6.445313-3.722657c4.78125-2.761718 6.421875-8.875 3.65625-13.65625-2.757813-4.78125-8.875-6.421874-13.65625-3.660156l-9.496094 5.480469c-10.011719-10.347656-21.496094-19.136719-34.058594-26.066406zm-69.972656 141.144531c-47.714844 0-91.128906-27.164062-111.84375-69.578125 20.714844-42.417969 64.128906-69.582031 111.84375-69.582031 47.710937 0 91.125 27.164062 111.839844 69.582031-20.714844 42.414063-64.128907 69.578125-111.839844 69.578125zm0 0"/><path d="m214.171875 172.210938c-29.753906 0-53.957031 24.207031-53.957031 53.960937 0 29.75 24.203125 53.957031 53.957031 53.957031 29.75 0 53.957031-24.207031 53.957031-53.957031 0-29.753906-24.207031-53.960937-53.957031-53.960937zm0 87.917968c-18.726563 0-33.960937-15.234375-33.960937-33.957031 0-18.726563 15.234374-33.960937 33.960937-33.960937 18.722656 0 33.957031 15.234374 33.957031 33.960937 0 18.722656-15.234375 33.957031-33.957031 33.957031zm0 0"/><path d="m408.324219 216.757812c0 5.507813 4.488281 10 9.996093 10 5.511719 0 10.003907-4.492187 10.003907-10 0-5.507812-4.492188-9.996093-10.003907-9.996093-5.507812 0-9.996093 4.488281-9.996093 9.996093zm0 0"/><path d="m20 214.171875c0-5.511719-4.492188-10-10-10s-10 4.488281-10 10c0 5.507813 4.492188 10 10 10s10-4.492187 10-10zm0 0"/></g></svg>