<svg height="512pt" viewBox="0 0 512 512.001" width="512pt" xmlns="http://www.w3.org/2000/svg"><g fill-rule="evenodd"><path d="m57.199219 57.285156c63.070312-63.039062 165.308593-63.039062 228.375 0 63.066406 63.066406 63.066406 165.304688 0 228.371094-63.066407 63.066406-165.304688 63.066406-228.375 0-63.035157-63.066406-63.035157-165.304688 0-228.371094zm0 0" fill="#67e4dc"/><path d="m322.023438 322.109375c17.40625-17.40625 45.894531-17.40625 63.296874 0l103.511719 103.542969c17.40625 17.402344 17.40625 45.859375 0 63.265625-17.402343 17.402343-45.859375 17.402343-63.265625 0l-103.542968-103.515625c-17.402344-17.402344-17.402344-45.890625 0-63.292969zm0 0" fill="#ffdda0"/><path d="m350.371094 309.183594-46.003906-46.003906c-5.472657 7.910156-11.734376 15.449218-18.792969 22.476562-7.03125 7.058594-14.570313 13.324219-22.480469 18.792969l46.003906 46.003906c.765625-10.347656 5.074219-20.464844 12.925782-28.34375 7.882812-7.851563 18-12.160156 28.347656-12.925781zm0 0" fill="#fec96b"/></g><path d="m495.910156 418.578125-103.515625-103.542969c-10.5-10.5-24.230469-15.824218-38.019531-15.996094l-37.1875-37.183593c16.734375-26.878907 25.691406-57.941407 25.691406-90.382813 0-45.804687-17.839844-88.871094-50.230468-121.265625-32.394532-32.375-75.457032-50.207031-121.261719-50.207031-45.804688 0-88.867188 17.832031-121.261719 50.210938-66.832031 66.863281-66.832031 175.65625 0 242.523437 32.394531 32.390625 75.457031 50.230469 121.261719 50.230469 32.445312 0 63.507812-8.960938 90.382812-25.691406l37.183594 37.183593c.175781 13.789063 5.503906 27.527344 16 38.027344l23.5 23.46875c3.910156 3.902344 10.246094 3.898437 14.148437-.011719 3.90625-3.90625 3.902344-10.242187-.007812-14.148437l-23.496094-23.464844c-7.027344-7.027344-10.398437-16.339844-10.136718-25.566406l.117187-1.570313c.539063-7.277344 3.332031-14.171875 7.921875-19.699218.015625-.023438.035156-.039063.050781-.0625.308594-.367188.621094-.730469.945313-1.085938.355468-.386719.714844-.769531 1.089844-1.144531.203124-.203125.414062-.394531.621093-.589844.171875-.164063.339844-.332031.511719-.492187 5.730469-5.210938 13.089844-8.375 20.886719-8.953126l1.574219-.117187c9.226562-.261719 18.535156 3.113281 25.5625 10.136719l103.515624 103.542968c13.539063 13.542969 13.542969 35.574219 0 49.117188-13.539062 13.542969-35.574218 13.542969-49.121093-.003906l-23.496094-23.46875c-3.910156-3.90625-10.246094-3.902344-14.148437.007812-3.90625 3.910156-3.902344 10.246094.007812 14.148438l23.492188 23.464844c10.671874 10.671874 24.6875 16.007812 38.707031 16.007812s28.035156-5.335938 38.707031-16.007812c21.34375-21.34375 21.34375-56.070313.003906-77.414063zm-431.632812-139.992187c-59.035156-59.066407-59.035156-155.164063-.003906-214.226563 28.613281-28.597656 66.652343-44.347656 107.113281-44.347656 40.460937 0 78.5 15.75 107.113281 44.347656 28.609375 28.613281 44.367188 66.652344 44.367188 107.113281 0 40.433594-15.738282 78.453125-44.320313 107.0625-.019531.015625-.039063.035156-.054687.054688-28.613282 28.605468-66.648438 44.363281-107.105469 44.363281s-78.5-15.757813-107.109375-44.367187zm215.421875 25.859374c.238281-.191406.472656-.386718.707031-.582031.902344-.746093 1.804688-1.5 2.691406-2.265625.179688-.15625.359375-.316406.539063-.472656.929687-.808594 1.855469-1.617188 2.765625-2.445312.109375-.097657.214844-.199219.324218-.296876 2.011719-1.839843 3.992188-3.710937 5.910157-5.636718 0 0 .003906-.003906.003906-.007813.003906 0 .007813-.003906.007813-.003906 1.015624-1.015625 2.015624-2.042969 3-3.074219.847656-.886718 1.679687-1.792968 2.503906-2.695312.15625-.171875.3125-.335938.46875-.507813.796875-.878906 1.578125-1.769531 2.355468-2.664062.1875-.210938.375-.425781.5625-.640625.746094-.867188 1.480469-1.742188 2.210938-2.625.210938-.257813.425781-.515625.636719-.773438.359375-.441406.730469-.875 1.085937-1.316406l25.492188 25.492188c-4.378906 1.992187-8.546875 4.589843-12.378906 7.792968v.003906c-.617188.515626-1.226563 1.039063-1.824219 1.582032-.585938.535156-1.160157 1.082031-1.726563 1.644531-.027344.027344-.058594.050781-.085937.082031-.003907.003906-.007813.007813-.011719.011719-.597656.597656-1.179688 1.210937-1.746094 1.835937-.46875.515626-.917968 1.042969-1.367187 1.574219-.078125.089844-.15625.175781-.234375.269531-3.179688 3.816407-5.761719 7.964844-7.742188 12.320313l-25.496094-25.492187c.453126-.363282.894532-.742188 1.347657-1.109376zm0 0"/><path d="m373.78125 427.15625c-5.5 0-9.976562 4.503906-9.976562 10.003906s4.476562 10.007813 9.976562 10.007813c5.527344 0 10.007812-4.507813 10.007812-10.007813s-4.480468-10.003906-10.007812-10.003906zm0 0"/><path d="m62.078125 131.460938c7.503906 0 15.613281 2.683593 24.203125 5.523437 9.703125 3.207031 19.738281 6.523437 30.445312 6.523437 10.722657 0 20.765626-3.316406 30.476563-6.527343 8.585937-2.835938 16.695313-5.519531 24.199219-5.519531 7.5 0 15.601562 2.683593 24.179687 5.519531 9.707031 3.210937 19.742188 6.53125 30.46875 6.53125 10.722657 0 20.765625-3.320313 30.476563-6.53125 8.585937-2.835938 16.695312-5.515625 24.199218-5.515625 5.527344 0 10.003907-4.480469 10.003907-10.007813 0-5.523437-4.476563-10.003906-10.003907-10.003906-10.722656 0-20.765624 3.320313-30.476562 6.527344-8.585938 2.839843-16.699219 5.519531-24.199219 5.519531-7.503906 0-15.605469-2.679688-24.183593-5.519531-9.703126-3.207031-19.742188-6.527344-30.464844-6.527344s-20.765625 3.316406-30.480469 6.527344c-8.585937 2.835937-16.695313 5.519531-24.199219 5.519531-7.480468 0-15.582031-2.679688-24.160156-5.515625-9.714844-3.210937-19.761719-6.53125-30.488281-6.53125-5.523438 0-10.003907 4.480469-10.003907 10.003906 0 5.527344 4.480469 10.003907 10.007813 10.003907zm0 0"/><path d="m62.078125 181.460938c7.503906 0 15.613281 2.683593 24.203125 5.523437 9.703125 3.207031 19.738281 6.523437 30.445312 6.523437 10.722657 0 20.765626-3.316406 30.476563-6.527343 8.585937-2.839844 16.695313-5.519531 24.199219-5.519531 7.5 0 15.601562 2.679687 24.179687 5.519531 9.707031 3.210937 19.742188 6.53125 30.46875 6.53125 10.722657 0 20.765625-3.320313 30.476563-6.53125 8.585937-2.835938 16.695312-5.515625 24.199218-5.515625 5.527344 0 10.003907-4.480469 10.003907-10.007813 0-5.523437-4.476563-10.003906-10.003907-10.003906-10.722656 0-20.765624 3.320313-30.476562 6.527344-8.585938 2.839843-16.699219 5.519531-24.199219 5.519531-7.503906 0-15.605469-2.679688-24.183593-5.519531-9.703126-3.207031-19.742188-6.527344-30.464844-6.527344s-20.765625 3.316406-30.480469 6.527344c-8.585937 2.835937-16.695313 5.519531-24.199219 5.519531-7.480468 0-15.582031-2.679688-24.160156-5.515625-9.714844-3.210937-19.761719-6.53125-30.488281-6.53125-5.523438 0-10.003907 4.476563-10.003907 10.003906 0 5.527344 4.480469 10.003907 10.007813 10.003907zm0 0"/><path d="m280.726562 231.460938c5.527344 0 10.003907-4.476563 10.003907-10.003907 0-5.527343-4.476563-10.003906-10.003907-10.003906-10.722656 0-20.765624 3.316406-30.476562 6.527344-8.585938 2.835937-16.699219 5.515625-24.199219 5.515625-7.503906 0-15.605469-2.679688-24.183593-5.515625-9.703126-3.210938-19.742188-6.53125-30.464844-6.53125s-20.765625 3.320312-30.480469 6.53125c-8.585937 2.835937-16.695313 5.515625-24.199219 5.515625-7.480468 0-15.582031-2.679688-24.160156-5.511719-9.714844-3.210937-19.761719-6.535156-30.488281-6.535156-5.523438 0-10.003907 4.480469-10.003907 10.007812 0 5.523438 4.480469 10.003907 10.003907 10.003907 7.503906 0 15.617187 2.683593 24.207031 5.519531 9.703125 3.210937 19.734375 6.527343 30.441406 6.527343 10.722656 0 20.769532-3.320312 30.480469-6.527343 8.585937-2.839844 16.695313-5.519531 24.199219-5.519531 7.5 0 15.601562 2.679687 24.179687 5.519531 9.707031 3.207031 19.742188 6.527343 30.46875 6.527343 10.722657 0 20.765625-3.316406 30.476563-6.527343 8.585937-2.839844 16.695312-5.519531 24.199218-5.519531zm0 0"/></svg>