<svg xmlns="http://www.w3.org/2000/svg" xmlns:xlink="http://www.w3.org/1999/xlink" xmlns:lucid="lucid" width="1280" height="820"><g transform="translate(0 4)" lucid:page-tab-id="0_0"><path d="M436 16c24.3 0 44 26.86 44 60s-19.7 60-44 60H304c-24.3 0-44-26.86-44-60s19.7-60 44-60z" stroke="#000" stroke-width="2" fill="#fff"/><use xlink:href="#a" transform="matrix(1,0,0,1,265.00000000000006,21.000000000000014) translate(45.888888888888886 60.333333333333336)"/><path d="M196 256c24.3 0 44 26.86 44 60s-19.7 60-44 60H64c-24.3 0-44-26.86-44-60s19.7-60 44-60z" stroke="#000" stroke-width="2" fill="#fff"/><use xlink:href="#b" transform="matrix(1,0,0,1,25,261) translate(48.07407407407406 60.333333333333336)"/><path d="M196 516c24.3 0 44 26.86 44 60s-19.7 60-44 60H64c-24.3 0-44-26.86-44-60s19.7-60 44-60z" stroke="#000" stroke-width="2" fill="#fff"/><use xlink:href="#c" transform="matrix(1,0,0,1,25,521) translate(3.629629629629605 60.333333333333336)"/><path d="M436 676c24.3 0 44 26.86 44 60s-19.7 60-44 60H304c-24.3 0-44-26.86-44-60s19.7-60 44-60z" stroke="#000" stroke-width="2" fill="#fff"/><use xlink:href="#d" transform="matrix(1,0,0,1,265.00000000000006,681) translate(16.962962962962948 60.333333333333336)"/><path d="M956 676c24.3 0 44 26.86 44 60s-19.7 60-44 60H824c-24.3 0-44-26.86-44-60s19.7-60 44-60z" stroke="#000" stroke-width="2" fill="#fff"/><use xlink:href="#e" transform="matrix(1,0,0,1,785,681) translate(8.92592592592591 60.333333333333336)"/><path d="M1216 516c24.3 0 44 26.86 44 60s-19.7 60-44 60h-132c-24.3 0-44-26.86-44-60s19.7-60 44-60z" stroke="#000" stroke-width="2" fill="#fff"/><use xlink:href="#f" transform="matrix(1,0,0,1,1045,521) translate(6.703703703703681 60.333333333333336)"/><path d="M956 16c24.3 0 44 26.86 44 60s-19.7 60-44 60H824c-24.3 0-44-26.86-44-60s19.7-60 44-60z" stroke="#000" stroke-width="2" fill="#fff"/><use xlink:href="#g" transform="matrix(1,0,0,1,785,21) translate(14.148148148148152 60.333333333333336)"/><path d="M1216 256c24.3 0 44 26.86 44 60s-19.7 60-44 60h-132c-24.3 0-44-26.86-44-60s19.7-60 44-60z" stroke="#000" stroke-width="2" fill="#fff"/><use xlink:href="#h" transform="matrix(1,0,0,1,1045,261) translate(11.851851851851833 60.333333333333336)"/><path d="M688 352c24.3 0 44 26.86 44 60s-19.7 60-44 60H556c-24.3 0-44-26.86-44-60s19.7-60 44-60z" stroke="#000" stroke-width="2" fill="#fff"/><use xlink:href="#i" transform="matrix(1,0,0,1,517,357) translate(41.51851851851852 60.333333333333336)"/><path d="M448.8 340.2l12.93 7.05 12.98 7.85 12.2 8.13 10.25 7.53 4.96 4-1.24 1.55-4.93-3.96-10.18-7.47-12.1-8.08-12.92-7.82-12.86-7-8.8-4.3h4.55zm-206.55-44.88l5.08.22 18.76 1.6 44.4 5.56 42.03 6.94 19.4 4.03h-9.8l-9.97-2.07-41.95-6.92-44.32-5.54-18.68-1.6-5-.22h-1.67l-.7.03-.36.03-.18.02-.18.04-.08.03-.78-1.84.18-.08.23-.06.3-.07.3-.04.43-.05.8-.03z"/><path d="M238.7 295.55l-.08 2-3-.1.07-2zM512.3 385.85l-13.52-6.5 6.4-6.7z"/><path d="M514.65 388.08l-17.54-8.42 8.3-8.7zm-14.2-9.03l9.5 4.57-5-9.3z"/><use xlink:href="#j" transform="matrix(1,0,0,1,347.39720944558024,313.6733860284754) translate(0 16)"/><path d="M379.25 415.65l13.26 3.97 12.58 3.2 12 2.5 11.54 1.92 11.14 1.38 10.83.88 10.58.4 10.38-.02 10.24-.46 10.15-.88 10.1-1.3 10.1-1.75.34 1.96-10.15 1.75-10.18 1.32-10.23.9-10.33.46-10.46.03-10.67-.4-10.9-.9-11.24-1.38-11.62-1.93-12.07-2.54-12.65-3.2-13.35-4-6.33-2.2h6.13zm-108.2-52.6l23.8 14.33 20.47 11.2 5.67 2.8h-4.53l-2.07-1.03-20.56-11.23-23.87-14.38-18.5-12.24 1.1-1.67z"/><path d="M515.44 427l-2.96.46-.3-1.97 2.95-.48zM254 347.4l-5.17 7.7-9.26-11.8z"/><path d="M255.6 346.82l-6.7 9.98-12.02-15.3zm-6.83 6.58l3.63-5.4-10.15-2.9z"/><use xlink:href="#k" transform="matrix(1,0,0,1,276.01937976730164,391.37328638361737) translate(0 16)"/><path d="M366.2 577.5l-18.07 6.2-17.33 5.15-16.02 4.04-14.23 2.95-12.2 2-10.12 1.25-8.22.65-6.57.25-5.24-.02-1.8-.08.08-2 1.76.08 5.16.02 6.5-.24 8.13-.65 10.04-1.22 12.1-2 14.16-2.94 15.94-4.02 17.25-5.12 18-6.18 2.66-1.03h5.5zm168.6-111.57l-9.18 10.1-9.97 10.07-10.8 10.05-11.7 10-12.64 9.9-13.63 9.8-14.64 9.64-15.65 9.36-10.54 5.73h-4.2l13.74-7.47 15.6-9.33 14.56-9.58 13.56-9.76 12.58-9.86 11.63-9.94 10.76-10 9.9-10 9.16-10.08z"/><path d="M536.82 463.72l-2.02 2.2-1.48-1.34 2.03-2.2zM254.96 603.34l-13.14-7.24 14.88-1.87z"/><path d="M255.68 604.88l-17.04-9.4 19.3-2.4zm-10.7-8.17l9.25 5.1 1.23-6.4z"/><use xlink:href="#l" transform="matrix(1,0,0,1,298.17652995150775,550.5884062111388) translate(0 16)"/><path d="M312 504.7l-31.57 20.13-42.27 28.87-1.13-1.66 42.3-28.88L310.96 503l5.33-3.08h4zm191.4-54.8l-.05 2-5.7-.13-19.53.38-16.67 1.03-14.73 1.53-13.38 1.98-12.47 2.36-11.88 2.78-11.6 3.23-11.55 3.74-11.83 4.4-6.5 2.72h-5.18l10.94-4.6 11.9-4.42 11.65-3.77 11.66-3.25 11.95-2.8L433 454.7l13.47-1.97 14.8-1.54 16.77-1.05 19.62-.4zM518.37 451.23l-14.37 4.3.2-9.25z"/><path d="M521.6 451.3l-18.63 5.6.27-12.02zm-16.57 2.9l10.1-3.04-9.95-3.5zM238.16 553.7l-2.48 1.7-1.12-1.66 2.47-1.7z"/><use xlink:href="#m" transform="matrix(1,0,0,1,241.07509855960842,475.91970386779127) translate(0 16)"/><path d="M470.38 290.84l22.96 14.27 31.08 17.55 54.04 27.46-.9 1.8-54.1-27.48-31.14-17.6-23.03-14.3-16.18-11h3.56zM359.18 159.5l1.07 4.8 1.3 4.87 1.53 4.94 1.8 5.04 2.1 5.14 2.4 5.28 2.76 5.44 3.16 5.63 3.62 5.85 4.14 6.12 4.75 6.4 5.47 6.8 6.32 7.17 7.33 7.68 8.6 8.26 9.72 8.6h-3.02l-8.07-7.12-8.65-8.32-7.38-7.74-6.38-7.24-5.5-6.84-4.82-6.5-4.18-6.17-3.66-5.92-3.2-5.7-2.8-5.52-2.44-5.36-2.12-5.22-1.83-5.1-1.58-5.02-1.3-4.95-1.1-4.9-.8-4.54 1.96-.35z"/><path d="M581.14 351.47l-.9 1.78-2.7-1.36.92-1.8zM361.96 154.08l-9.24.73 3.5-14.57z"/><path d="M363.4 154.97l-11.97.95 4.53-18.92zm-9.4-1.26l6.5-.5-4.03-9.75z"/><use xlink:href="#n" transform="matrix(1,0,0,1,368.6850753511365,257.50698452185304) translate(0 16)"/><path d="M511.35 203.05l14.5 15.3 14.46 16.58 13.52 16.87 11.82 16.1 9.73 14.46L583 294.8l5.8 10.4 4.3 8.6 3.2 7.04 2.34 5.8 1.7 4.83.43 1.37-1.9.6-.42-1.34-1.68-4.74-2.3-5.73-3.16-6.97-4.27-8.5-5.76-10.34-7.6-12.38-9.66-14.4-11.77-16.02-13.46-16.8-14.4-16.52-14.44-15.25-11.25-10.92h2.87zm-89.57-65.3l5.08 2.1 5.65 2.63 6.34 3.27 7.1 4.06 8 5.05 9.07 6.23 10.24 7.7.92.75h-3.25l-9.06-6.82-9-6.18-7.93-5-7.02-4-6.25-3.24-5.57-2.6-5-2.08-4.55-1.66.7-1.88zM417.24 136.08l-.77 1.84-2.77-1.14.77-1.85zM602.5 347.82l-7.13-13.2 9.12-1.67z"/><path d="M603.1 351l-9.26-17.1 11.82-2.18zm-6.2-15.64l5.03 9.27 1.4-10.45z"/><use xlink:href="#o" transform="matrix(1,0,0,1,419.87558827998873,169.5319752609901) translate(0 16)"/><path d="M506.28 656l-31.2 18.93-1.05-1.7 31.18-18.92 16.25-10.74h3.62zm136.6-182.98l-.15 6.6-.4 6.42-.67 6.28-.9 6.16-1.16 6.07-1.4 6-1.67 5.95-1.93 5.94-2.22 5.95-2.5 5.98-2.86 6.05-3.2 6.14-3.63 6.27-4.1 6.43-4.62 6.64-5.24 6.9-5.98 7.24-6.87 7.63-8 8.14-9.4 8.83-11.28 9.73-6.57 5.2h-3.22l8.52-6.74 11.22-9.68 9.34-8.76 7.93-8.08 6.82-7.57 5.93-7.16 5.2-6.83 4.56-6.58 4.03-6.36 3.58-6.2 3.18-6.06 2.8-5.98 2.5-5.9 2.18-5.88 1.9-5.86 1.65-5.87 1.4-5.92 1.13-5.98.9-6.08.65-6.2.4-6.34.14-6.55z"/><path d="M643 470.06l-.14 3-2-.1.16-3zM476.32 678.42l-14.6 3.43 9.8-11.36z"/><path d="M477.9 679.08l-18.94 4.45 12.7-14.73zm-13.4 1.1l10.25-2.42-3.38-5.57z"/><use xlink:href="#p" transform="matrix(1,0,0,1,449.0481274483977,619.5569010400466) translate(0 16)"/><path d="M435.96 615l-8.4 9.8-6.44 8.23-5 6.94-3.88 5.92-3.05 5.08-2.4 4.4-1.9 3.88-1.5 3.4-1.2 3.05-.93 2.74-.73 2.46-.56 2.24-.43 2.06-1.96-.4.43-2.1.58-2.33.77-2.54.96-2.8 1.22-3.12 1.53-3.48 1.93-3.95 2.45-4.48 3.1-5.17 3.93-6 5.04-7 6.5-8.3 8.45-9.86 7.52-8.1h2.73zm33.53-33.42h-2.98l7.7-7h2.97zm137.05-98.9l-21.18 12.4-28.1 18.06-28.7 20.2-26.6 20.38-.74.62v-2.57l26.15-20.05 28.77-20.24 28.18-18.1 21.2-12.42z"/><path d="M399.53 675.3l-.92 2.86-1.9-.6.92-2.87zM608.93 485.53l-4.5-8.12 14.74-2.83z"/><path d="M608.72 487.2l-5.82-10.5L622 473zm-2.74-9.07l3.16 5.7 7.2-7.7z"/><use xlink:href="#q" transform="matrix(1,0,0,1,366.47760502864435,581.5807133096123) translate(0 16)"/><path d="M908.5 630.92l2.38 3.55 2 3.24 1.66 3 1.4 2.8 1.18 2.6 1 2.5.84 2.35.7 2.26.57 2.2.28 1.27-1.94.43-.28-1.24-.55-2.1-.67-2.18-.8-2.3-.98-2.4-1.14-2.53-1.37-2.7-1.63-2.93-1.94-3.17-2.34-3.48-1.2-1.6h2.5zm-49.77-48.35l15.5 12.65 10.3 9.15 2.17 2.1h-2.88l-.64-.63-10.23-9.1-15.45-12.6-8.93-6.66v-2.5zm-28.5-21.27l16.83 12.56h-3.34l-14.65-10.93-131.56-90.66 1.15-1.65zM919.78 671.76l-4.87-14.18 9.28-.16z"/><path d="M919.84 675l-6.33-18.4 12.04-.2zm-3.54-16.45l3.43 9.98 3.1-10.1zM698.65 470.62l-1.14 1.65-2.46-1.7 1.14-1.65z"/><use xlink:href="#r" transform="matrix(1,0,0,1,799.5766661631483,606.4569666228291) translate(0 16)"/><path d="M813.25 638.8l22.87 18.26 15.03 11.02 9.1 6.1-1.13 1.65-9.12-6.12-15.1-11.05-22.93-18.32-11.38-9.87h3.04zm-28.08-24.38l14.4 12.5v2.65l-15.75-13.67-19.13-18.04h2.9zM682.6 492.07l1.44 3.42 1.87 3.98 2.47 4.74 3.27 5.7 4.4 6.92 5.93 8.58 8.16 10.78 11.3 13.7 15.72 17.5 6.3 6.46h-2.8l-4.96-5.1-15.78-17.54-11.36-13.78-8.2-10.85-6-8.66-4.43-7-3.3-5.76-2.52-4.8-1.9-4.08-1.45-3.5-.6-1.64 1.86-.7z"/><path d="M862.72 675.87l-1.13 1.65-2.5-1.7 1.15-1.65zM685.52 489.38l-9.12 1.67 2-14.87z"/><path d="M687.06 490.12l-11.83 2.16L677.8 473zm-9.48-.3l6.4-1.18-5-9.27z"/><use xlink:href="#s" transform="matrix(1,0,0,1,658.9568568248787,573.8585498720233) translate(0 16)"/><path d="M763.3 187.5l-11.67 10.75-10.93 10.94-10.2 11.08-9.42 11.17-8.66 11.17-7.9 11.1-7.08 10.93-6.28 10.63-5.48 10.23-4.68 9.7-3.9 9.02-3.18 8.27-2.5 7.44-1.92 6.6-1.4 5.73-1 4.94-.67 4.2-.4 3.56-.23 3-.08 2.5v.55h-2v-.57l.08-2.58.23-3.07.42-3.64.68-4.3 1-5 1.44-5.83 1.94-6.66 2.54-7.53 3.2-8.34 3.94-9.1 4.72-9.76 5.52-10.3 6.32-10.7 7.14-11 7.93-11.17 8.73-11.24 9.48-11.24 10.25-11.15 11-11L762 186l2.06-1.75h3.1zm54.5-40.37l-14.85 9.65-4.88 3.47h-3.45l7.2-5.13 14.88-9.67zM820.24 149.9l-4.72-7.97 14.64-3.28z"/><path d="M820.08 151.6l-6.12-10.35 18.98-4.25zm-3-9l3.32 5.6 6.97-7.9zM665.7 351.1l-.3 3-2-.22.32-3z"/><use xlink:href="#t" transform="matrix(1,0,0,1,686.5788066418208,160.24694971086416) translate(0 16)"/><path d="M852.47 235.47l-28.84 27.07-28.83 24.9-24.53 19.48-19.12 13.92-14.46 9.63-10.96 6.64-8.4 4.63-6.55 3.27-2.5 1.1-.83-1.82 2.46-1.1 6.5-3.22 8.3-4.6 10.88-6.58 14.4-9.58 19.06-13.88 24.47-19.42 28.76-24.85 28.77-27 3.82-3.9h2.8zm75.3-98.45v.55l-.04.63-.08.7-.1.78-.18.9-.24 1-.33 1.2-.45 1.37-.6 1.64-.85 1.97-1.15 2.43-1.6 3.06-2.27 3.92-3.28 5.16-4.85 6.97-7.34 9.64-11.2 13.53-12.36 13.68h-2.7l13.54-15 11.16-13.45 7.3-9.57 4.8-6.9 3.23-5.1 2.23-3.83 1.56-3 1.12-2.35.8-1.9.58-1.56.42-1.3.3-1.1.23-.94.17-.8.1-.7.07-.63.03-.54v-.52z"/><path d="M928.67 134.46l-.94 2.85-1.9-.6.94-2.86zM708.73 349.8l-15 .26 12-9.02z"/><path d="M710.12 350.78l-19.45.33 15.54-11.7zM696.8 349l10.54-.17-2.12-6.16z"/><use xlink:href="#u" transform="matrix(1,0,0,1,777.1741143267496,206.14943073178722) translate(0 16)"/><path d="M856.18 310.3l-16.8 6.1-17.94 7.4-20.54 9.52-27.18 14.02-49.7 28.2-.97-1.75 49.7-28.22 27.27-14.06 20.6-9.54 18.05-7.44 16.86-6.15.4-.13h6.6zm170.04-24.74l-.05 2-12.9-.37-14.25.18v-2l14.25-.2zM1041.2 286.98l-14.4 4.23.26-9.26z"/><path d="M1044.42 287.07l-18.66 5.5.34-12.03zm-16.58 2.8l10.1-2.98-9.92-3.55zM724.03 375.53l-2.6 1.48-1-1.73 2.62-1.48z"/><use xlink:href="#v" transform="matrix(1,0,0,1,808.2946300327205,284.2698733904275) translate(0 16)"/><path d="M827.78 397.1l-28.76 1.48-44.42.5-4.75-.15.06-2 4.72.14 44.34-.5 28.82-1.47zm216.94-52.8l-.87 1.05-1.2 1.37-1.37 1.42-1.56 1.5-1.8 1.56-2.04 1.66-2.38 1.77-2.78 1.88-3.26 2.02-3.87 2.18-4.66 2.36-5.63 2.56-6.92 2.82-8.64 3.1-10.96 3.4-1.82.5h-7.78l9.04-2.42 10.88-3.38 8.57-3.07 6.85-2.78 5.55-2.55 4.57-2.32 3.8-2.13 3.2-1.97 2.7-1.84 2.3-1.72 2-1.6 1.73-1.52 1.5-1.43 1.3-1.37 1.16-1.3.84-1.03zM749 402.54l-14.12-5.05 14.4-4.23z"/><path d="M749.97 403.94l-18.32-6.55 18.67-5.47zm-11.85-6.36l9.93 3.55.2-6.5zM1046.83 342.37l-2.2 2.03-1.37-1.47 2.2-2.03z"/><use xlink:href="#w" transform="matrix(1,0,0,1,827.7817212504524,375.4303436889149) translate(0 16)"/><path d="M981.72 470.83l21.42 9.06 16.56 7.83 12.08 6.34 8.67 5.04 6.27 4 4.6 3.2 1.2.93-1.2 1.6-1.18-.9-4.53-3.16-6.2-3.95-8.6-5-12-6.3-16.48-7.8-21.34-9.04-9.42-3.53h5.7zM878.64 440.7l6.24 1.04 11.68 2.28 4.7 1.13h-9.37l-7.37-1.44-6.17-1.02-146.6-16.08.23-1.98z"/><path d="M732 424.62l-.23 1.98-2.98-.32.2-2zM1062.45 518.56l-13.37-6.8 6.56-6.57z"/><path d="M1064.74 520.84L1047.4 512l8.5-8.5zm-13.98-9.36l9.4 4.8-4.8-9.4z"/><use xlink:href="#x" transform="matrix(1,0,0,1,841.1906228198388,445.1487628975278) translate(0 16)"/><path d="M1021.67 551.38l14.04.85 4.68.1 1.88-.06.05 2-1.9.05-4.77-.1-14.12-.85-35.57-3.6-5.6-.8h17.6zM759.74 467.1l16.62 12.7 14.18 9.92 12.5 7.98 11.14 6.48 10.02 5.28 9.07 4.3 8.26 3.5 7.57 2.83 1.87.64 11.8 3.75 1.77.47h-6.87l-7.33-2.33-1.92-.67-7.64-2.86-8.33-3.52-9.14-4.33-10.1-5.32-11.2-6.52-12.57-8-14.25-9.98-16.7-12.75L740.8 454l1.28-1.53z"/><path d="M1045.32 552.38l-.07 2-3-.1.07-2zM743.76 449.18l-5.8 7.23-8.22-12.54z"/><path d="M745.4 448.73l-7.52 9.38-10.67-16.27zm-7.36 5.98l4.08-5.07-9.86-3.74z"/><use xlink:href="#y" transform="matrix(1,0,0,1,814.7884769117328,524.9658677770555) translate(0 16)"/><path d="M660 646c0 5.52-4.48 10-10 10s-10-4.48-10-10 4.48-10 10-10 10 4.48 10 10z" stroke="#000" stroke-width="2"/><path d="M661.65 491.24l-.17 8.88-1.18 19-1.83 17.3-6.77 52.46-1.18 19-.52 27.1" stroke="#000" stroke-width="2" fill="none"/><path d="M661.94 476.24l4.36 14.35-9.27-.2z" stroke="#000" stroke-width="2"/><path d="M650 635l-.06 3" stroke="#000" stroke-width="2" fill="none"/><path d="M620 226c0 5.52-4.48 10-10 10s-10-4.48-10-10 4.48-10 10-10 10 4.48 10 10z" stroke="#000" stroke-width="2" fill="#fff"/><path d="M616 226c0 3.3-2.7 6-6 6s-6-2.7-6-6 2.7-6 6-6 6 2.7 6 6z" stroke="#000" stroke-width="2"/><path d="M637.6 320.9l1.82 7.36 1.2 5.93.77 5.02.48 4.37.26 3.88.08 3.5-2 .04-.08-3.45-.25-3.8-.5-4.3-.76-4.93-1.17-5.85-1.8-7.27-.4-1.34h2.1zm-20.88-61.16l10.3 29.2 1.56 4.48h-2.12l-1.32-3.82-10.33-29.24-1.56-5.33 1.92-.57z"/><path d="M642.48 353.9l-2 .18-.26-3 2-.17zM618.54 252.98l-9.02 2.13 1.23-14.94z"/><path d="M620.1 253.63l-11.7 2.77L610 237zm-9.47.2l6.34-1.5-5.48-9.02z"/><use xlink:href="#z" transform="matrix(1,0,0,1,611.2322302289692,293.4199840683051) translate(0 17.77777777777778)"/><path d="M600 656h110v20H600z" stroke="#000" stroke-opacity="0" stroke-width="8" fill="#fff" fill-opacity="0"/><use xlink:href="#A" transform="matrix(1,0,0,1,605,661) translate(12.148148148148145 21.333333333333336)"/><path d="M555 176h110v20H555z" stroke="#000" stroke-opacity="0" stroke-width="8" fill="#fff" fill-opacity="0"/><use xlink:href="#B" transform="matrix(1,0,0,1,560,181) translate(15.81481481481481 21.333333333333336)"/><defs><path d="M81-9v9H4v-9l26-5 81-224h33l83 224 30 5v9h-99v-9l31-5-23-68H73L49-14zm38-203L78-98h82" id="C"/><path d="M65-12l28 4v8H7v-8l28-4v-226l-28-4v-8h58v238" id="D"/><path d="M166-85c3 67-44 102-111 85l1 64 29 4v9H6v-9l21-4v-217c-7-3-22 1-19-12h46l1 9c11-8 26-14 45-14 47 2 64 36 66 85zM56-13c53 14 83-14 78-72 7-53-33-79-78-60v132" id="E"/><path d="M126-119c3-38-42-31-69-25v132l23 4v8H7v-8l21-4v-226l-24-4v-8h53l-1 98c31-22 99-31 99 31v109c7 3 23-1 20 12h-71v-8l22-4v-107" id="F"/><path d="M32-163c41-10 102-14 102 39v112c8 3 24-2 21 12h-45l-4-17C83 13 3 13 13-46c-2-50 45-50 92-51 4-36-5-70-42-56-6 2-12 4-16 6-4 7 0 23-15 20v-36zM42-47c0 41 41 33 63 22v-59c-34 1-63-1-63 37" id="G"/><path d="M178-68c0 79-95 82-154 59v-54h12c1 35 22 52 60 52 50 0 69-58 33-82-39-24-105-21-105-85 0-67 86-66 142-53v49h-12l-6-29c-31-27-121-7-89 42 28 43 119 24 119 101" id="H"/><path d="M54-38c-1 25 24 26 44 20v12C71 10 25 9 25-35v-115H4c-2-14 14-10 21-15l18-38h11v38h38v15H54v112" id="I"/><path d="M84-170c49 0 66 33 63 87H46c-8 60 38 80 95 63v10C128-2 108 4 88 4 34 4 14-29 14-84c-1-54 22-86 70-86zm33 73c12-57-57-82-69-24-1 7-2 15-2 24h71" id="J"/><g id="a"><use transform="matrix(0.07407407407407408,0,0,0.07407407407407408,0,0)" xlink:href="#C"/><use transform="matrix(0.07407407407407408,0,0,0.07407407407407408,19.185185185185187,0)" xlink:href="#D"/><use transform="matrix(0.07407407407407408,0,0,0.07407407407407408,26.592592592592595,0)" xlink:href="#E"/><use transform="matrix(0.07407407407407408,0,0,0.07407407407407408,39.92592592592593,0)" xlink:href="#F"/><use transform="matrix(0.07407407407407408,0,0,0.07407407407407408,53.25925925925927,0)" xlink:href="#G"/><use transform="matrix(0.07407407407407408,0,0,0.07407407407407408,65.03703703703704,0)" xlink:href="#H"/><use transform="matrix(0.07407407407407408,0,0,0.07407407407407408,79.85185185185185,0)" xlink:href="#I"/><use transform="matrix(0.07407407407407408,0,0,0.07407407407407408,87.25925925925925,0)" xlink:href="#G"/><use transform="matrix(0.07407407407407408,0,0,0.07407407407407408,99.03703703703704,0)" xlink:href="#I"/><use transform="matrix(0.07407407407407408,0,0,0.07407407407407408,106.44444444444444,0)" xlink:href="#J"/></g><path d="M75-108c48 3 76-12 76-58s-28-57-76-54v112zm111-58c-1 60-46 78-111 74v78l37 5v9H13v-9l28-5v-208l-31-4v-10c81 1 178-14 176 70" id="K"/><path d="M124-13C89 8 26 15 26-45v-108c-8-3-24 2-21-12h50v118c-3 37 42 32 69 25v-131l-25-4v-8h54v153c8 3 24-2 21 12h-48" id="L"/><path d="M125-118c4-37-41-34-68-26v132l23 4v8H8C5-13 21-9 28-12v-141c-7-3-23 1-20-12h47l2 13c31-23 98-29 98 31v109c7 3 23-1 20 12h-72v-8l22-4v-106" id="M"/><path d="M45-84c0 64 52 80 104 63 1 25-30 25-55 25-56 0-80-32-80-88 0-76 62-98 131-80v46h-10c-5-15-4-31-23-35-47-10-67 21-67 69" id="N"/><g id="b"><use transform="matrix(0.07407407407407408,0,0,0.07407407407407408,0,0)" xlink:href="#K"/><use transform="matrix(0.07407407407407408,0,0,0.07407407407407408,14.814814814814817,0)" xlink:href="#L"/><use transform="matrix(0.07407407407407408,0,0,0.07407407407407408,28.148148148148152,0)" xlink:href="#M"/><use transform="matrix(0.07407407407407408,0,0,0.07407407407407408,41.48148148148149,0)" xlink:href="#N"/><use transform="matrix(0.07407407407407408,0,0,0.07407407407407408,53.25925925925927,0)" xlink:href="#I"/><use transform="matrix(0.07407407407407408,0,0,0.07407407407407408,60.66666666666667,0)" xlink:href="#H"/><use transform="matrix(0.07407407407407408,0,0,0.07407407407407408,75.4814814814815,0)" xlink:href="#I"/><use transform="matrix(0.07407407407407408,0,0,0.07407407407407408,82.8888888888889,0)" xlink:href="#G"/><use transform="matrix(0.07407407407407408,0,0,0.07407407407407408,94.66666666666669,0)" xlink:href="#I"/><use transform="matrix(0.07407407407407408,0,0,0.07407407407407408,102.07407407407409,0)" xlink:href="#J"/></g><path d="M52-115c0 93 80 130 150 87l7-35h11l-1 55c-23 7-52 12-83 12C60 4 19-37 15-115c-5-113 97-141 201-114l1 51h-12l-5-30c-15-9-39-16-62-16-66 0-86 41-86 109" id="O"/><path d="M90-170c52 0 76 32 76 87 0 54-24 87-77 87-51 0-75-34-75-87 0-54 24-87 76-87zM89-10c39 0 46-35 46-73 0-39-7-73-46-73-39 1-44 34-44 73s6 72 44 73" id="P"/><path d="M126-118c4-37-42-32-68-25v131l24 4v8H8C5-13 21-9 28-12v-141c-7-3-23 1-20-12h48l1 13c22-15 77-30 92 2 32-22 104-36 104 29v109c8 3 24-2 21 12h-75v-8l25-4v-106c3-39-45-31-72-24 7 37 1 88 3 130l25 4v8h-78v-8l24-4v-106" id="Q"/><g id="c"><use transform="matrix(0.07407407407407408,0,0,0.07407407407407408,0,0)" xlink:href="#O"/><use transform="matrix(0.07407407407407408,0,0,0.07407407407407408,17.77777777777778,0)" xlink:href="#E"/><use transform="matrix(0.07407407407407408,0,0,0.07407407407407408,31.111111111111114,0)" xlink:href="#E"/><use transform="matrix(0.07407407407407408,0,0,0.07407407407407408,44.44444444444445,0)" xlink:href="#O"/><use transform="matrix(0.07407407407407408,0,0,0.07407407407407408,62.22222222222223,0)" xlink:href="#P"/><use transform="matrix(0.07407407407407408,0,0,0.07407407407407408,75.55555555555557,0)" xlink:href="#Q"/><use transform="matrix(0.07407407407407408,0,0,0.07407407407407408,96.29629629629632,0)" xlink:href="#Q"/><use transform="matrix(0.07407407407407408,0,0,0.07407407407407408,117.03703703703707,0)" xlink:href="#J"/><use transform="matrix(0.07407407407407408,0,0,0.07407407407407408,128.81481481481484,0)" xlink:href="#M"/><use transform="matrix(0.07407407407407408,0,0,0.07407407407407408,142.14814814814818,0)" xlink:href="#I"/><use transform="matrix(0.07407407407407408,0,0,0.07407407407407408,149.5555555555556,0)" xlink:href="#H"/><use transform="matrix(0.07407407407407408,0,0,0.07407407407407408,164.37037037037044,0)" xlink:href="#I"/><use transform="matrix(0.07407407407407408,0,0,0.07407407407407408,171.77777777777783,0)" xlink:href="#G"/><use transform="matrix(0.07407407407407408,0,0,0.07407407407407408,183.5555555555556,0)" xlink:href="#I"/><use transform="matrix(0.07407407407407408,0,0,0.07407407407407408,190.96296296296302,0)" xlink:href="#J"/></g><g id="d"><use transform="matrix(0.07407407407407408,0,0,0.07407407407407408,0,0)" xlink:href="#O"/><use transform="matrix(0.07407407407407408,0,0,0.07407407407407408,17.77777777777778,0)" xlink:href="#O"/><use transform="matrix(0.07407407407407408,0,0,0.07407407407407408,35.55555555555556,0)" xlink:href="#P"/><use transform="matrix(0.07407407407407408,0,0,0.07407407407407408,48.88888888888889,0)" xlink:href="#Q"/><use transform="matrix(0.07407407407407408,0,0,0.07407407407407408,69.62962962962963,0)" xlink:href="#Q"/><use transform="matrix(0.07407407407407408,0,0,0.07407407407407408,90.37037037037038,0)" xlink:href="#J"/><use transform="matrix(0.07407407407407408,0,0,0.07407407407407408,102.14814814814814,0)" xlink:href="#M"/><use transform="matrix(0.07407407407407408,0,0,0.07407407407407408,115.4814814814815,0)" xlink:href="#I"/><use transform="matrix(0.07407407407407408,0,0,0.07407407407407408,122.8888888888889,0)" xlink:href="#H"/><use transform="matrix(0.07407407407407408,0,0,0.07407407407407408,137.70370370370372,0)" xlink:href="#I"/><use transform="matrix(0.07407407407407408,0,0,0.07407407407407408,145.11111111111114,0)" xlink:href="#G"/><use transform="matrix(0.07407407407407408,0,0,0.07407407407407408,156.8888888888889,0)" xlink:href="#I"/><use transform="matrix(0.07407407407407408,0,0,0.07407407407407408,164.2962962962963,0)" xlink:href="#J"/></g><path d="M47-200c-23 0-25-39 0-38 13 0 18 7 20 19-1 11-8 19-20 19zM65-12l28 4v8H8v-8l28-4v-141l-24-4v-8h53v153" id="R"/><g id="e"><use transform="matrix(0.07407407407407408,0,0,0.07407407407407408,0,0)" xlink:href="#H"/><use transform="matrix(0.07407407407407408,0,0,0.07407407407407408,14.814814814814817,0)" xlink:href="#E"/><use transform="matrix(0.07407407407407408,0,0,0.07407407407407408,28.148148148148152,0)" xlink:href="#J"/><use transform="matrix(0.07407407407407408,0,0,0.07407407407407408,39.92592592592593,0)" xlink:href="#N"/><use transform="matrix(0.07407407407407408,0,0,0.07407407407407408,51.70370370370371,0)" xlink:href="#R"/><use transform="matrix(0.07407407407407408,0,0,0.07407407407407408,59.11111111111111,0)" xlink:href="#G"/><use transform="matrix(0.07407407407407408,0,0,0.07407407407407408,70.88888888888889,0)" xlink:href="#D"/><use transform="matrix(0.07407407407407408,0,0,0.07407407407407408,78.29629629629629,0)" xlink:href="#K"/><use transform="matrix(0.07407407407407408,0,0,0.07407407407407408,93.1111111111111,0)" xlink:href="#L"/><use transform="matrix(0.07407407407407408,0,0,0.07407407407407408,106.44444444444446,0)" xlink:href="#M"/><use transform="matrix(0.07407407407407408,0,0,0.07407407407407408,119.7777777777778,0)" xlink:href="#N"/><use transform="matrix(0.07407407407407408,0,0,0.07407407407407408,131.55555555555557,0)" xlink:href="#I"/><use transform="matrix(0.07407407407407408,0,0,0.07407407407407408,138.962962962963,0)" xlink:href="#H"/><use transform="matrix(0.07407407407407408,0,0,0.07407407407407408,153.7777777777778,0)" xlink:href="#I"/><use transform="matrix(0.07407407407407408,0,0,0.07407407407407408,161.18518518518522,0)" xlink:href="#G"/><use transform="matrix(0.07407407407407408,0,0,0.07407407407407408,172.962962962963,0)" xlink:href="#I"/><use transform="matrix(0.07407407407407408,0,0,0.07407407407407408,180.37037037037038,0)" xlink:href="#J"/></g><path d="M75-17c87 13 134-18 134-103 0-78-51-106-134-100v203zm171-102C246 5 139 7 10 0v-9l31-5v-208l-31-4v-10h107c82 0 129 35 129 117" id="S"/><path d="M53-14c58 12 82-15 82-73 0-52-35-77-82-58v131zM89 4C64 4 42-2 24-9v-229l-24-4v-8h53l-1 94c48-33 114-4 114 69 0 57-23 91-77 91" id="T"/><path d="M130-224c-62 0-78 43-78 106 0 64 16 108 78 108s78-44 78-108c0-63-16-106-78-106zM145 3C61 9 15-34 15-118c0-80 37-120 115-120 77 0 115 42 115 120 1 59-21 95-62 112 19 19 30 53 71 46v12c-30 12-67 2-84-19" id="U"/><g id="f"><use transform="matrix(0.07407407407407408,0,0,0.07407407407407408,0,0)" xlink:href="#S"/><use transform="matrix(0.07407407407407408,0,0,0.07407407407407408,19.185185185185187,0)" xlink:href="#P"/><use transform="matrix(0.07407407407407408,0,0,0.07407407407407408,32.51851851851852,0)" xlink:href="#L"/><use transform="matrix(0.07407407407407408,0,0,0.07407407407407408,45.851851851851855,0)" xlink:href="#T"/><use transform="matrix(0.07407407407407408,0,0,0.07407407407407408,59.18518518518519,0)" xlink:href="#D"/><use transform="matrix(0.07407407407407408,0,0,0.07407407407407408,66.5925925925926,0)" xlink:href="#J"/><use transform="matrix(0.07407407407407408,0,0,0.07407407407407408,78.37037037037038,0)" xlink:href="#U"/><use transform="matrix(0.07407407407407408,0,0,0.07407407407407408,97.55555555555557,0)" xlink:href="#L"/><use transform="matrix(0.07407407407407408,0,0,0.07407407407407408,110.88888888888891,0)" xlink:href="#P"/><use transform="matrix(0.07407407407407408,0,0,0.07407407407407408,124.22222222222226,0)" xlink:href="#I"/><use transform="matrix(0.07407407407407408,0,0,0.07407407407407408,131.62962962962968,0)" xlink:href="#J"/><use transform="matrix(0.07407407407407408,0,0,0.07407407407407408,143.40740740740745,0)" xlink:href="#H"/><use transform="matrix(0.07407407407407408,0,0,0.07407407407407408,158.22222222222226,0)" xlink:href="#I"/><use transform="matrix(0.07407407407407408,0,0,0.07407407407407408,165.62962962962968,0)" xlink:href="#G"/><use transform="matrix(0.07407407407407408,0,0,0.07407407407407408,177.40740740740742,0)" xlink:href="#I"/><use transform="matrix(0.07407407407407408,0,0,0.07407407407407408,184.81481481481487,0)" xlink:href="#J"/></g><path d="M319-222L242 5h-10l-61-162L108 5h-9L21-222l-21-4v-10h90v10l-34 4 56 166 63-163h8l61 163 54-166-37-4v-10h78v10" id="V"/><g id="g"><use transform="matrix(0.07407407407407408,0,0,0.07407407407407408,0,0)" xlink:href="#V"/><use transform="matrix(0.07407407407407408,0,0,0.07407407407407408,25.111111111111114,0)" xlink:href="#F"/><use transform="matrix(0.07407407407407408,0,0,0.07407407407407408,38.44444444444445,0)" xlink:href="#R"/><use transform="matrix(0.07407407407407408,0,0,0.07407407407407408,45.851851851851855,0)" xlink:href="#I"/><use transform="matrix(0.07407407407407408,0,0,0.07407407407407408,53.25925925925927,0)" xlink:href="#J"/><use transform="matrix(0.07407407407407408,0,0,0.07407407407407408,65.03703703703704,0)" xlink:href="#H"/><use transform="matrix(0.07407407407407408,0,0,0.07407407407407408,79.85185185185185,0)" xlink:href="#E"/><use transform="matrix(0.07407407407407408,0,0,0.07407407407407408,93.18518518518519,0)" xlink:href="#G"/><use transform="matrix(0.07407407407407408,0,0,0.07407407407407408,104.96296296296296,0)" xlink:href="#N"/><use transform="matrix(0.07407407407407408,0,0,0.07407407407407408,116.74074074074073,0)" xlink:href="#J"/><use transform="matrix(0.07407407407407408,0,0,0.07407407407407408,128.5185185185185,0)" xlink:href="#H"/><use transform="matrix(0.07407407407407408,0,0,0.07407407407407408,143.33333333333331,0)" xlink:href="#I"/><use transform="matrix(0.07407407407407408,0,0,0.07407407407407408,150.74074074074073,0)" xlink:href="#G"/><use transform="matrix(0.07407407407407408,0,0,0.07407407407407408,162.5185185185185,0)" xlink:href="#I"/><use transform="matrix(0.07407407407407408,0,0,0.07407407407407408,169.92592592592592,0)" xlink:href="#J"/></g><path d="M141-152c28 39 5 97-54 97-9 0-20-2-27-3L49-35c29 22 130-14 124 52-4 45-38 57-88 61C21 83-8 26 45-2 33-6 22-15 21-31l28-31c-19-9-28-26-28-51-2-51 53-65 100-52l38-20 7 8zM85 64c35 0 61-11 61-42 0-35-57-17-89-21-9 8-16 19-17 34 0 25 19 29 45 29zM52-113c1 26 7 46 35 44 28-1 34-16 35-44 0-26-6-43-34-43s-36 17-36 43" id="W"/><g id="h"><use transform="matrix(0.07407407407407408,0,0,0.07407407407407408,0,0)" xlink:href="#H"/><use transform="matrix(0.07407407407407408,0,0,0.07407407407407408,14.814814814814817,0)" xlink:href="#R"/><use transform="matrix(0.07407407407407408,0,0,0.07407407407407408,22.222222222222225,0)" xlink:href="#M"/><use transform="matrix(0.07407407407407408,0,0,0.07407407407407408,35.55555555555556,0)" xlink:href="#W"/><use transform="matrix(0.07407407407407408,0,0,0.07407407407407408,48.88888888888889,0)" xlink:href="#D"/><use transform="matrix(0.07407407407407408,0,0,0.07407407407407408,56.296296296296305,0)" xlink:href="#J"/><use transform="matrix(0.07407407407407408,0,0,0.07407407407407408,68.07407407407408,0)" xlink:href="#U"/><use transform="matrix(0.07407407407407408,0,0,0.07407407407407408,87.25925925925927,0)" xlink:href="#L"/><use transform="matrix(0.07407407407407408,0,0,0.07407407407407408,100.59259259259261,0)" xlink:href="#P"/><use transform="matrix(0.07407407407407408,0,0,0.07407407407407408,113.92592592592595,0)" xlink:href="#I"/><use transform="matrix(0.07407407407407408,0,0,0.07407407407407408,121.33333333333334,0)" xlink:href="#J"/><use transform="matrix(0.07407407407407408,0,0,0.07407407407407408,133.11111111111114,0)" xlink:href="#H"/><use transform="matrix(0.07407407407407408,0,0,0.07407407407407408,147.92592592592595,0)" xlink:href="#I"/><use transform="matrix(0.07407407407407408,0,0,0.07407407407407408,155.3333333333334,0)" xlink:href="#G"/><use transform="matrix(0.07407407407407408,0,0,0.07407407407407408,167.11111111111114,0)" xlink:href="#I"/><use transform="matrix(0.07407407407407408,0,0,0.07407407407407408,174.51851851851856,0)" xlink:href="#J"/></g><path d="M77-14l30 5v9H13v-9l30-5v-208l-30-4v-10h94v10l-30 4v208" id="X"/><path d="M108-235c-52 28-62 95-58 178 3 56 21 97 58 119v15C7 49-17-153 67-223c12-10 25-19 41-27v15" id="Y"/><path d="M12-250C113-222 137-19 52 49 40 59 28 69 12 77V62C56 37 70-16 70-87c0-70-13-123-58-148v-15" id="Z"/><g id="i"><use transform="matrix(0.07407407407407408,0,0,0.07407407407407408,0,0)" xlink:href="#X"/><use transform="matrix(0.07407407407407408,0,0,0.07407407407407408,8.814814814814817,0)" xlink:href="#M"/><use transform="matrix(0.07407407407407408,0,0,0.07407407407407408,22.148148148148152,0)" xlink:href="#R"/><use transform="matrix(0.07407407407407408,0,0,0.07407407407407408,29.55555555555556,0)" xlink:href="#I"/><use transform="matrix(0.07407407407407408,0,0,0.07407407407407408,36.96296296296297,0)" xlink:href="#G"/><use transform="matrix(0.07407407407407408,0,0,0.07407407407407408,48.74074074074075,0)" xlink:href="#D"/><use transform="matrix(0.07407407407407408,0,0,0.07407407407407408,56.14814814814815,0)" xlink:href="#H"/><use transform="matrix(0.07407407407407408,0,0,0.07407407407407408,70.96296296296296,0)" xlink:href="#I"/><use transform="matrix(0.07407407407407408,0,0,0.07407407407407408,78.37037037037037,0)" xlink:href="#G"/><use transform="matrix(0.07407407407407408,0,0,0.07407407407407408,90.14814814814817,0)" xlink:href="#I"/><use transform="matrix(0.07407407407407408,0,0,0.07407407407407408,97.55555555555556,0)" xlink:href="#J"/><use transform="matrix(0.07407407407407408,0,0,0.07407407407407408,109.33333333333334,0)" xlink:href="#Y"/><use transform="matrix(0.07407407407407408,0,0,0.07407407407407408,118.14814814814815,0)" xlink:href="#Z"/></g><path d="M41-130c7 48 86 23 86 84 0 56-69 57-112 41v-40c20 0 9 29 31 31 35 19 77-26 41-50-27-18-72-13-72-59 0-50 58-52 100-41v36c-19 1-8-25-28-25-21-7-50-1-46 23" id="aa"/><path d="M10-9l31-5v-208l-31-4v-10h177v57h-11l-6-38c-28-4-63-3-95-3v92h63l6-28h11v73h-11l-6-29H75v96l105-3 10-43h12l-3 62H10v-9" id="ab"/><path d="M13-81c0-71 46-101 114-85l-1-72-28-4v-8h57v238c8 3 24-2 21 12h-47l-2-12C80 23 13-1 13-81zm77-74c-37 1-44 33-45 74 0 38 9 66 45 66 14 0 27-3 36-7v-130c-10-1-24-3-36-3" id="ac"/><g id="j"><use transform="matrix(0.05555555555555555,0,0,0.05555555555555555,0,0)" xlink:href="#R"/><use transform="matrix(0.05555555555555555,0,0,0.05555555555555555,5.555555555555555,0)" xlink:href="#aa"/><use transform="matrix(0.05555555555555555,0,0,0.05555555555555555,13.333333333333332,0)" xlink:href="#K"/><use transform="matrix(0.05555555555555555,0,0,0.05555555555555555,24.444444444444443,0)" xlink:href="#L"/><use transform="matrix(0.05555555555555555,0,0,0.05555555555555555,34.44444444444444,0)" xlink:href="#M"/><use transform="matrix(0.05555555555555555,0,0,0.05555555555555555,44.44444444444444,0)" xlink:href="#N"/><use transform="matrix(0.05555555555555555,0,0,0.05555555555555555,53.27777777777777,0)" xlink:href="#I"/><use transform="matrix(0.05555555555555555,0,0,0.05555555555555555,58.83333333333333,0)" xlink:href="#H"/><use transform="matrix(0.05555555555555555,0,0,0.05555555555555555,69.94444444444444,0)" xlink:href="#I"/><use transform="matrix(0.05555555555555555,0,0,0.05555555555555555,75.5,0)" xlink:href="#G"/><use transform="matrix(0.05555555555555555,0,0,0.05555555555555555,84.33333333333333,0)" xlink:href="#I"/><use transform="matrix(0.05555555555555555,0,0,0.05555555555555555,89.88888888888889,0)" xlink:href="#J"/><use transform="matrix(0.05555555555555555,0,0,0.05555555555555555,98.72222222222221,0)" xlink:href="#ab"/><use transform="matrix(0.05555555555555555,0,0,0.05555555555555555,110.88888888888889,0)" xlink:href="#M"/><use transform="matrix(0.05555555555555555,0,0,0.05555555555555555,120.88888888888889,0)" xlink:href="#ac"/></g><path d="M57-145c16-10 35-24 60-25v45c-19 1-8-30-40-17l-20 6v124l29 4v8H7v-8l21-4v-141c-8-3-24 2-21-12h48" id="ad"/><g id="k"><use transform="matrix(0.05555555555555555,0,0,0.05555555555555555,0,0)" xlink:href="#R"/><use transform="matrix(0.05555555555555555,0,0,0.05555555555555555,5.555555555555555,0)" xlink:href="#aa"/><use transform="matrix(0.05555555555555555,0,0,0.05555555555555555,13.333333333333332,0)" xlink:href="#K"/><use transform="matrix(0.05555555555555555,0,0,0.05555555555555555,24.444444444444443,0)" xlink:href="#L"/><use transform="matrix(0.05555555555555555,0,0,0.05555555555555555,34.44444444444444,0)" xlink:href="#M"/><use transform="matrix(0.05555555555555555,0,0,0.05555555555555555,44.44444444444444,0)" xlink:href="#N"/><use transform="matrix(0.05555555555555555,0,0,0.05555555555555555,53.27777777777777,0)" xlink:href="#I"/><use transform="matrix(0.05555555555555555,0,0,0.05555555555555555,58.83333333333333,0)" xlink:href="#H"/><use transform="matrix(0.05555555555555555,0,0,0.05555555555555555,69.94444444444444,0)" xlink:href="#I"/><use transform="matrix(0.05555555555555555,0,0,0.05555555555555555,75.5,0)" xlink:href="#G"/><use transform="matrix(0.05555555555555555,0,0,0.05555555555555555,84.33333333333333,0)" xlink:href="#I"/><use transform="matrix(0.05555555555555555,0,0,0.05555555555555555,89.88888888888889,0)" xlink:href="#J"/><use transform="matrix(0.05555555555555555,0,0,0.05555555555555555,98.72222222222221,0)" xlink:href="#H"/><use transform="matrix(0.05555555555555555,0,0,0.05555555555555555,109.83333333333333,0)" xlink:href="#I"/><use transform="matrix(0.05555555555555555,0,0,0.05555555555555555,115.38888888888889,0)" xlink:href="#G"/><use transform="matrix(0.05555555555555555,0,0,0.05555555555555555,124.22222222222221,0)" xlink:href="#ad"/><use transform="matrix(0.05555555555555555,0,0,0.05555555555555555,130.83333333333331,0)" xlink:href="#I"/></g><g id="l"><use transform="matrix(0.05555555555555555,0,0,0.05555555555555555,0,0)" xlink:href="#R"/><use transform="matrix(0.05555555555555555,0,0,0.05555555555555555,5.555555555555555,0)" xlink:href="#aa"/><use transform="matrix(0.05555555555555555,0,0,0.05555555555555555,13.333333333333332,0)" xlink:href="#O"/><use transform="matrix(0.05555555555555555,0,0,0.05555555555555555,26.666666666666664,0)" xlink:href="#E"/><use transform="matrix(0.05555555555555555,0,0,0.05555555555555555,36.666666666666664,0)" xlink:href="#E"/><use transform="matrix(0.05555555555555555,0,0,0.05555555555555555,46.666666666666664,0)" xlink:href="#O"/><use transform="matrix(0.05555555555555555,0,0,0.05555555555555555,60,0)" xlink:href="#P"/><use transform="matrix(0.05555555555555555,0,0,0.05555555555555555,70,0)" xlink:href="#Q"/><use transform="matrix(0.05555555555555555,0,0,0.05555555555555555,85.55555555555556,0)" xlink:href="#Q"/><use transform="matrix(0.05555555555555555,0,0,0.05555555555555555,101.11111111111111,0)" xlink:href="#J"/><use transform="matrix(0.05555555555555555,0,0,0.05555555555555555,109.94444444444444,0)" xlink:href="#M"/><use transform="matrix(0.05555555555555555,0,0,0.05555555555555555,119.94444444444444,0)" xlink:href="#I"/><use transform="matrix(0.05555555555555555,0,0,0.05555555555555555,125.5,0)" xlink:href="#H"/><use transform="matrix(0.05555555555555555,0,0,0.05555555555555555,136.61111111111111,0)" xlink:href="#I"/><use transform="matrix(0.05555555555555555,0,0,0.05555555555555555,142.16666666666666,0)" xlink:href="#G"/><use transform="matrix(0.05555555555555555,0,0,0.05555555555555555,151,0)" xlink:href="#I"/><use transform="matrix(0.05555555555555555,0,0,0.05555555555555555,156.55555555555554,0)" xlink:href="#J"/><use transform="matrix(0.05555555555555555,0,0,0.05555555555555555,165.38888888888889,0)" xlink:href="#H"/><use transform="matrix(0.05555555555555555,0,0,0.05555555555555555,176.5,0)" xlink:href="#I"/><use transform="matrix(0.05555555555555555,0,0,0.05555555555555555,182.05555555555554,0)" xlink:href="#G"/><use transform="matrix(0.05555555555555555,0,0,0.05555555555555555,190.88888888888889,0)" xlink:href="#ad"/><use transform="matrix(0.05555555555555555,0,0,0.05555555555555555,197.5,0)" xlink:href="#I"/></g><g id="m"><use transform="matrix(0.05555555555555555,0,0,0.05555555555555555,0,0)" xlink:href="#R"/><use transform="matrix(0.05555555555555555,0,0,0.05555555555555555,5.555555555555555,0)" xlink:href="#aa"/><use transform="matrix(0.05555555555555555,0,0,0.05555555555555555,13.333333333333332,0)" xlink:href="#O"/><use transform="matrix(0.05555555555555555,0,0,0.05555555555555555,26.666666666666664,0)" xlink:href="#E"/><use transform="matrix(0.05555555555555555,0,0,0.05555555555555555,36.666666666666664,0)" xlink:href="#E"/><use transform="matrix(0.05555555555555555,0,0,0.05555555555555555,46.666666666666664,0)" xlink:href="#O"/><use transform="matrix(0.05555555555555555,0,0,0.05555555555555555,60,0)" xlink:href="#P"/><use transform="matrix(0.05555555555555555,0,0,0.05555555555555555,70,0)" xlink:href="#Q"/><use transform="matrix(0.05555555555555555,0,0,0.05555555555555555,85.55555555555556,0)" xlink:href="#Q"/><use transform="matrix(0.05555555555555555,0,0,0.05555555555555555,101.11111111111111,0)" xlink:href="#J"/><use transform="matrix(0.05555555555555555,0,0,0.05555555555555555,109.94444444444444,0)" xlink:href="#M"/><use transform="matrix(0.05555555555555555,0,0,0.05555555555555555,119.94444444444444,0)" xlink:href="#I"/><use transform="matrix(0.05555555555555555,0,0,0.05555555555555555,125.5,0)" xlink:href="#H"/><use transform="matrix(0.05555555555555555,0,0,0.05555555555555555,136.61111111111111,0)" xlink:href="#I"/><use transform="matrix(0.05555555555555555,0,0,0.05555555555555555,142.16666666666666,0)" xlink:href="#G"/><use transform="matrix(0.05555555555555555,0,0,0.05555555555555555,151,0)" xlink:href="#I"/><use transform="matrix(0.05555555555555555,0,0,0.05555555555555555,156.55555555555554,0)" xlink:href="#J"/><use transform="matrix(0.05555555555555555,0,0,0.05555555555555555,165.38888888888889,0)" xlink:href="#ab"/><use transform="matrix(0.05555555555555555,0,0,0.05555555555555555,177.55555555555554,0)" xlink:href="#M"/><use transform="matrix(0.05555555555555555,0,0,0.05555555555555555,187.55555555555554,0)" xlink:href="#ac"/></g><g id="n"><use transform="matrix(0.05555555555555555,0,0,0.05555555555555555,0,0)" xlink:href="#R"/><use transform="matrix(0.05555555555555555,0,0,0.05555555555555555,5.555555555555555,0)" xlink:href="#aa"/><use transform="matrix(0.05555555555555555,0,0,0.05555555555555555,13.333333333333332,0)" xlink:href="#C"/><use transform="matrix(0.05555555555555555,0,0,0.05555555555555555,27.72222222222222,0)" xlink:href="#D"/><use transform="matrix(0.05555555555555555,0,0,0.05555555555555555,33.27777777777778,0)" xlink:href="#E"/><use transform="matrix(0.05555555555555555,0,0,0.05555555555555555,43.27777777777778,0)" xlink:href="#F"/><use transform="matrix(0.05555555555555555,0,0,0.05555555555555555,53.27777777777778,0)" xlink:href="#G"/><use transform="matrix(0.05555555555555555,0,0,0.05555555555555555,62.11111111111112,0)" xlink:href="#H"/><use transform="matrix(0.05555555555555555,0,0,0.05555555555555555,73.22222222222223,0)" xlink:href="#I"/><use transform="matrix(0.05555555555555555,0,0,0.05555555555555555,78.77777777777779,0)" xlink:href="#G"/><use transform="matrix(0.05555555555555555,0,0,0.05555555555555555,87.61111111111111,0)" xlink:href="#I"/><use transform="matrix(0.05555555555555555,0,0,0.05555555555555555,93.16666666666667,0)" xlink:href="#J"/><use transform="matrix(0.05555555555555555,0,0,0.05555555555555555,102,0)" xlink:href="#H"/><use transform="matrix(0.05555555555555555,0,0,0.05555555555555555,113.11111111111111,0)" xlink:href="#I"/><use transform="matrix(0.05555555555555555,0,0,0.05555555555555555,118.66666666666666,0)" xlink:href="#G"/><use transform="matrix(0.05555555555555555,0,0,0.05555555555555555,127.5,0)" xlink:href="#ad"/><use transform="matrix(0.05555555555555555,0,0,0.05555555555555555,134.11111111111111,0)" xlink:href="#I"/></g><g id="o"><use transform="matrix(0.05555555555555555,0,0,0.05555555555555555,0,0)" xlink:href="#R"/><use transform="matrix(0.05555555555555555,0,0,0.05555555555555555,5.555555555555555,0)" xlink:href="#aa"/><use transform="matrix(0.05555555555555555,0,0,0.05555555555555555,13.333333333333332,0)" xlink:href="#C"/><use transform="matrix(0.05555555555555555,0,0,0.05555555555555555,27.72222222222222,0)" xlink:href="#D"/><use transform="matrix(0.05555555555555555,0,0,0.05555555555555555,33.27777777777778,0)" xlink:href="#E"/><use transform="matrix(0.05555555555555555,0,0,0.05555555555555555,43.27777777777778,0)" xlink:href="#F"/><use transform="matrix(0.05555555555555555,0,0,0.05555555555555555,53.27777777777778,0)" xlink:href="#G"/><use transform="matrix(0.05555555555555555,0,0,0.05555555555555555,62.11111111111112,0)" xlink:href="#H"/><use transform="matrix(0.05555555555555555,0,0,0.05555555555555555,73.22222222222223,0)" xlink:href="#I"/><use transform="matrix(0.05555555555555555,0,0,0.05555555555555555,78.77777777777779,0)" xlink:href="#G"/><use transform="matrix(0.05555555555555555,0,0,0.05555555555555555,87.61111111111111,0)" xlink:href="#I"/><use transform="matrix(0.05555555555555555,0,0,0.05555555555555555,93.16666666666667,0)" xlink:href="#J"/><use transform="matrix(0.05555555555555555,0,0,0.05555555555555555,102,0)" xlink:href="#ab"/><use transform="matrix(0.05555555555555555,0,0,0.05555555555555555,114.16666666666666,0)" xlink:href="#M"/><use transform="matrix(0.05555555555555555,0,0,0.05555555555555555,124.16666666666666,0)" xlink:href="#ac"/></g><g id="p"><use transform="matrix(0.05555555555555555,0,0,0.05555555555555555,0,0)" xlink:href="#R"/><use transform="matrix(0.05555555555555555,0,0,0.05555555555555555,5.555555555555555,0)" xlink:href="#aa"/><use transform="matrix(0.05555555555555555,0,0,0.05555555555555555,13.333333333333332,0)" xlink:href="#O"/><use transform="matrix(0.05555555555555555,0,0,0.05555555555555555,26.666666666666664,0)" xlink:href="#O"/><use transform="matrix(0.05555555555555555,0,0,0.05555555555555555,40,0)" xlink:href="#P"/><use transform="matrix(0.05555555555555555,0,0,0.05555555555555555,50,0)" xlink:href="#Q"/><use transform="matrix(0.05555555555555555,0,0,0.05555555555555555,65.55555555555556,0)" xlink:href="#Q"/><use transform="matrix(0.05555555555555555,0,0,0.05555555555555555,81.11111111111111,0)" xlink:href="#J"/><use transform="matrix(0.05555555555555555,0,0,0.05555555555555555,89.94444444444444,0)" xlink:href="#M"/><use transform="matrix(0.05555555555555555,0,0,0.05555555555555555,99.94444444444444,0)" xlink:href="#I"/><use transform="matrix(0.05555555555555555,0,0,0.05555555555555555,105.5,0)" xlink:href="#H"/><use transform="matrix(0.05555555555555555,0,0,0.05555555555555555,116.6111111111111,0)" xlink:href="#I"/><use transform="matrix(0.05555555555555555,0,0,0.05555555555555555,122.16666666666666,0)" xlink:href="#G"/><use transform="matrix(0.05555555555555555,0,0,0.05555555555555555,131,0)" xlink:href="#I"/><use transform="matrix(0.05555555555555555,0,0,0.05555555555555555,136.55555555555554,0)" xlink:href="#J"/><use transform="matrix(0.05555555555555555,0,0,0.05555555555555555,145.38888888888889,0)" xlink:href="#H"/><use transform="matrix(0.05555555555555555,0,0,0.05555555555555555,156.5,0)" xlink:href="#I"/><use transform="matrix(0.05555555555555555,0,0,0.05555555555555555,162.05555555555554,0)" xlink:href="#G"/><use transform="matrix(0.05555555555555555,0,0,0.05555555555555555,170.88888888888889,0)" xlink:href="#ad"/><use transform="matrix(0.05555555555555555,0,0,0.05555555555555555,177.5,0)" xlink:href="#I"/></g><g id="q"><use transform="matrix(0.05555555555555555,0,0,0.05555555555555555,0,0)" xlink:href="#R"/><use transform="matrix(0.05555555555555555,0,0,0.05555555555555555,5.555555555555555,0)" xlink:href="#aa"/><use transform="matrix(0.05555555555555555,0,0,0.05555555555555555,13.333333333333332,0)" xlink:href="#O"/><use transform="matrix(0.05555555555555555,0,0,0.05555555555555555,26.666666666666664,0)" xlink:href="#O"/><use transform="matrix(0.05555555555555555,0,0,0.05555555555555555,40,0)" xlink:href="#P"/><use transform="matrix(0.05555555555555555,0,0,0.05555555555555555,50,0)" xlink:href="#Q"/><use transform="matrix(0.05555555555555555,0,0,0.05555555555555555,65.55555555555556,0)" xlink:href="#Q"/><use transform="matrix(0.05555555555555555,0,0,0.05555555555555555,81.11111111111111,0)" xlink:href="#J"/><use transform="matrix(0.05555555555555555,0,0,0.05555555555555555,89.94444444444444,0)" xlink:href="#M"/><use transform="matrix(0.05555555555555555,0,0,0.05555555555555555,99.94444444444444,0)" xlink:href="#I"/><use transform="matrix(0.05555555555555555,0,0,0.05555555555555555,105.5,0)" xlink:href="#H"/><use transform="matrix(0.05555555555555555,0,0,0.05555555555555555,116.6111111111111,0)" xlink:href="#I"/><use transform="matrix(0.05555555555555555,0,0,0.05555555555555555,122.16666666666666,0)" xlink:href="#G"/><use transform="matrix(0.05555555555555555,0,0,0.05555555555555555,131,0)" xlink:href="#I"/><use transform="matrix(0.05555555555555555,0,0,0.05555555555555555,136.55555555555554,0)" xlink:href="#J"/><use transform="matrix(0.05555555555555555,0,0,0.05555555555555555,145.38888888888889,0)" xlink:href="#ab"/><use transform="matrix(0.05555555555555555,0,0,0.05555555555555555,157.55555555555554,0)" xlink:href="#M"/><use transform="matrix(0.05555555555555555,0,0,0.05555555555555555,167.55555555555554,0)" xlink:href="#ac"/></g><g id="r"><use transform="matrix(0.05555555555555555,0,0,0.05555555555555555,0,0)" xlink:href="#R"/><use transform="matrix(0.05555555555555555,0,0,0.05555555555555555,5.555555555555555,0)" xlink:href="#aa"/><use transform="matrix(0.05555555555555555,0,0,0.05555555555555555,13.333333333333332,0)" xlink:href="#H"/><use transform="matrix(0.05555555555555555,0,0,0.05555555555555555,24.444444444444443,0)" xlink:href="#E"/><use transform="matrix(0.05555555555555555,0,0,0.05555555555555555,34.44444444444444,0)" xlink:href="#J"/><use transform="matrix(0.05555555555555555,0,0,0.05555555555555555,43.27777777777777,0)" xlink:href="#N"/><use transform="matrix(0.05555555555555555,0,0,0.05555555555555555,52.1111111111111,0)" xlink:href="#R"/><use transform="matrix(0.05555555555555555,0,0,0.05555555555555555,57.666666666666664,0)" xlink:href="#G"/><use transform="matrix(0.05555555555555555,0,0,0.05555555555555555,66.49999999999999,0)" xlink:href="#D"/><use transform="matrix(0.05555555555555555,0,0,0.05555555555555555,72.05555555555554,0)" xlink:href="#K"/><use transform="matrix(0.05555555555555555,0,0,0.05555555555555555,83.16666666666666,0)" xlink:href="#L"/><use transform="matrix(0.05555555555555555,0,0,0.05555555555555555,93.16666666666666,0)" xlink:href="#M"/><use transform="matrix(0.05555555555555555,0,0,0.05555555555555555,103.16666666666666,0)" xlink:href="#N"/><use transform="matrix(0.05555555555555555,0,0,0.05555555555555555,111.99999999999999,0)" xlink:href="#I"/><use transform="matrix(0.05555555555555555,0,0,0.05555555555555555,117.55555555555554,0)" xlink:href="#H"/><use transform="matrix(0.05555555555555555,0,0,0.05555555555555555,128.66666666666666,0)" xlink:href="#I"/><use transform="matrix(0.05555555555555555,0,0,0.05555555555555555,134.2222222222222,0)" xlink:href="#G"/><use transform="matrix(0.05555555555555555,0,0,0.05555555555555555,143.05555555555554,0)" xlink:href="#I"/><use transform="matrix(0.05555555555555555,0,0,0.05555555555555555,148.6111111111111,0)" xlink:href="#J"/><use transform="matrix(0.05555555555555555,0,0,0.05555555555555555,157.44444444444443,0)" xlink:href="#H"/><use transform="matrix(0.05555555555555555,0,0,0.05555555555555555,168.55555555555554,0)" xlink:href="#I"/><use transform="matrix(0.05555555555555555,0,0,0.05555555555555555,174.1111111111111,0)" xlink:href="#G"/><use transform="matrix(0.05555555555555555,0,0,0.05555555555555555,182.94444444444443,0)" xlink:href="#ad"/><use transform="matrix(0.05555555555555555,0,0,0.05555555555555555,189.55555555555554,0)" xlink:href="#I"/></g><g id="s"><use transform="matrix(0.05555555555555555,0,0,0.05555555555555555,0,0)" xlink:href="#R"/><use transform="matrix(0.05555555555555555,0,0,0.05555555555555555,5.555555555555555,0)" xlink:href="#aa"/><use transform="matrix(0.05555555555555555,0,0,0.05555555555555555,13.333333333333332,0)" xlink:href="#H"/><use transform="matrix(0.05555555555555555,0,0,0.05555555555555555,24.444444444444443,0)" xlink:href="#E"/><use transform="matrix(0.05555555555555555,0,0,0.05555555555555555,34.44444444444444,0)" xlink:href="#J"/><use transform="matrix(0.05555555555555555,0,0,0.05555555555555555,43.27777777777777,0)" xlink:href="#N"/><use transform="matrix(0.05555555555555555,0,0,0.05555555555555555,52.1111111111111,0)" xlink:href="#R"/><use transform="matrix(0.05555555555555555,0,0,0.05555555555555555,57.666666666666664,0)" xlink:href="#G"/><use transform="matrix(0.05555555555555555,0,0,0.05555555555555555,66.49999999999999,0)" xlink:href="#D"/><use transform="matrix(0.05555555555555555,0,0,0.05555555555555555,72.05555555555554,0)" xlink:href="#K"/><use transform="matrix(0.05555555555555555,0,0,0.05555555555555555,83.16666666666666,0)" xlink:href="#L"/><use transform="matrix(0.05555555555555555,0,0,0.05555555555555555,93.16666666666666,0)" xlink:href="#M"/><use transform="matrix(0.05555555555555555,0,0,0.05555555555555555,103.16666666666666,0)" xlink:href="#N"/><use transform="matrix(0.05555555555555555,0,0,0.05555555555555555,111.99999999999999,0)" xlink:href="#I"/><use transform="matrix(0.05555555555555555,0,0,0.05555555555555555,117.55555555555554,0)" xlink:href="#H"/><use transform="matrix(0.05555555555555555,0,0,0.05555555555555555,128.66666666666666,0)" xlink:href="#I"/><use transform="matrix(0.05555555555555555,0,0,0.05555555555555555,134.2222222222222,0)" xlink:href="#G"/><use transform="matrix(0.05555555555555555,0,0,0.05555555555555555,143.05555555555554,0)" xlink:href="#I"/><use transform="matrix(0.05555555555555555,0,0,0.05555555555555555,148.6111111111111,0)" xlink:href="#J"/><use transform="matrix(0.05555555555555555,0,0,0.05555555555555555,157.44444444444443,0)" xlink:href="#ab"/><use transform="matrix(0.05555555555555555,0,0,0.05555555555555555,169.6111111111111,0)" xlink:href="#M"/><use transform="matrix(0.05555555555555555,0,0,0.05555555555555555,179.6111111111111,0)" xlink:href="#ac"/></g><g id="t"><use transform="matrix(0.05555555555555555,0,0,0.05555555555555555,0,0)" xlink:href="#R"/><use transform="matrix(0.05555555555555555,0,0,0.05555555555555555,5.555555555555555,0)" xlink:href="#aa"/><use transform="matrix(0.05555555555555555,0,0,0.05555555555555555,13.333333333333332,0)" xlink:href="#V"/><use transform="matrix(0.05555555555555555,0,0,0.05555555555555555,32.166666666666664,0)" xlink:href="#F"/><use transform="matrix(0.05555555555555555,0,0,0.05555555555555555,42.166666666666664,0)" xlink:href="#R"/><use transform="matrix(0.05555555555555555,0,0,0.05555555555555555,47.72222222222222,0)" xlink:href="#I"/><use transform="matrix(0.05555555555555555,0,0,0.05555555555555555,53.27777777777778,0)" xlink:href="#J"/><use transform="matrix(0.05555555555555555,0,0,0.05555555555555555,62.11111111111112,0)" xlink:href="#H"/><use transform="matrix(0.05555555555555555,0,0,0.05555555555555555,73.22222222222223,0)" xlink:href="#E"/><use transform="matrix(0.05555555555555555,0,0,0.05555555555555555,83.22222222222223,0)" xlink:href="#G"/><use transform="matrix(0.05555555555555555,0,0,0.05555555555555555,92.05555555555556,0)" xlink:href="#N"/><use transform="matrix(0.05555555555555555,0,0,0.05555555555555555,100.88888888888889,0)" xlink:href="#J"/><use transform="matrix(0.05555555555555555,0,0,0.05555555555555555,109.72222222222221,0)" xlink:href="#H"/><use transform="matrix(0.05555555555555555,0,0,0.05555555555555555,120.83333333333333,0)" xlink:href="#I"/><use transform="matrix(0.05555555555555555,0,0,0.05555555555555555,126.38888888888889,0)" xlink:href="#G"/><use transform="matrix(0.05555555555555555,0,0,0.05555555555555555,135.22222222222223,0)" xlink:href="#I"/><use transform="matrix(0.05555555555555555,0,0,0.05555555555555555,140.77777777777777,0)" xlink:href="#J"/><use transform="matrix(0.05555555555555555,0,0,0.05555555555555555,149.61111111111111,0)" xlink:href="#H"/><use transform="matrix(0.05555555555555555,0,0,0.05555555555555555,160.72222222222223,0)" xlink:href="#I"/><use transform="matrix(0.05555555555555555,0,0,0.05555555555555555,166.27777777777777,0)" xlink:href="#G"/><use transform="matrix(0.05555555555555555,0,0,0.05555555555555555,175.11111111111111,0)" xlink:href="#ad"/><use transform="matrix(0.05555555555555555,0,0,0.05555555555555555,181.72222222222223,0)" xlink:href="#I"/></g><g id="u"><use transform="matrix(0.05555555555555555,0,0,0.05555555555555555,0,0)" xlink:href="#R"/><use transform="matrix(0.05555555555555555,0,0,0.05555555555555555,5.555555555555555,0)" xlink:href="#aa"/><use transform="matrix(0.05555555555555555,0,0,0.05555555555555555,13.333333333333332,0)" xlink:href="#V"/><use transform="matrix(0.05555555555555555,0,0,0.05555555555555555,32.166666666666664,0)" xlink:href="#F"/><use transform="matrix(0.05555555555555555,0,0,0.05555555555555555,42.166666666666664,0)" xlink:href="#R"/><use transform="matrix(0.05555555555555555,0,0,0.05555555555555555,47.72222222222222,0)" xlink:href="#I"/><use transform="matrix(0.05555555555555555,0,0,0.05555555555555555,53.27777777777778,0)" xlink:href="#J"/><use transform="matrix(0.05555555555555555,0,0,0.05555555555555555,62.11111111111112,0)" xlink:href="#H"/><use transform="matrix(0.05555555555555555,0,0,0.05555555555555555,73.22222222222223,0)" xlink:href="#E"/><use transform="matrix(0.05555555555555555,0,0,0.05555555555555555,83.22222222222223,0)" xlink:href="#G"/><use transform="matrix(0.05555555555555555,0,0,0.05555555555555555,92.05555555555556,0)" xlink:href="#N"/><use transform="matrix(0.05555555555555555,0,0,0.05555555555555555,100.88888888888889,0)" xlink:href="#J"/><use transform="matrix(0.05555555555555555,0,0,0.05555555555555555,109.72222222222221,0)" xlink:href="#H"/><use transform="matrix(0.05555555555555555,0,0,0.05555555555555555,120.83333333333333,0)" xlink:href="#I"/><use transform="matrix(0.05555555555555555,0,0,0.05555555555555555,126.38888888888889,0)" xlink:href="#G"/><use transform="matrix(0.05555555555555555,0,0,0.05555555555555555,135.22222222222223,0)" xlink:href="#I"/><use transform="matrix(0.05555555555555555,0,0,0.05555555555555555,140.77777777777777,0)" xlink:href="#J"/><use transform="matrix(0.05555555555555555,0,0,0.05555555555555555,149.61111111111111,0)" xlink:href="#ab"/><use transform="matrix(0.05555555555555555,0,0,0.05555555555555555,161.77777777777777,0)" xlink:href="#M"/><use transform="matrix(0.05555555555555555,0,0,0.05555555555555555,171.77777777777777,0)" xlink:href="#ac"/></g><g id="v"><use transform="matrix(0.05555555555555555,0,0,0.05555555555555555,0,0)" xlink:href="#R"/><use transform="matrix(0.05555555555555555,0,0,0.05555555555555555,5.555555555555555,0)" xlink:href="#aa"/><use transform="matrix(0.05555555555555555,0,0,0.05555555555555555,13.333333333333332,0)" xlink:href="#H"/><use transform="matrix(0.05555555555555555,0,0,0.05555555555555555,24.444444444444443,0)" xlink:href="#R"/><use transform="matrix(0.05555555555555555,0,0,0.05555555555555555,30,0)" xlink:href="#M"/><use transform="matrix(0.05555555555555555,0,0,0.05555555555555555,40,0)" xlink:href="#W"/><use transform="matrix(0.05555555555555555,0,0,0.05555555555555555,50,0)" xlink:href="#D"/><use transform="matrix(0.05555555555555555,0,0,0.05555555555555555,55.55555555555556,0)" xlink:href="#J"/><use transform="matrix(0.05555555555555555,0,0,0.05555555555555555,64.38888888888889,0)" xlink:href="#U"/><use transform="matrix(0.05555555555555555,0,0,0.05555555555555555,78.77777777777777,0)" xlink:href="#L"/><use transform="matrix(0.05555555555555555,0,0,0.05555555555555555,88.77777777777777,0)" xlink:href="#P"/><use transform="matrix(0.05555555555555555,0,0,0.05555555555555555,98.77777777777777,0)" xlink:href="#I"/><use transform="matrix(0.05555555555555555,0,0,0.05555555555555555,104.33333333333333,0)" xlink:href="#J"/><use transform="matrix(0.05555555555555555,0,0,0.05555555555555555,113.16666666666666,0)" xlink:href="#H"/><use transform="matrix(0.05555555555555555,0,0,0.05555555555555555,124.27777777777777,0)" xlink:href="#I"/><use transform="matrix(0.05555555555555555,0,0,0.05555555555555555,129.83333333333331,0)" xlink:href="#G"/><use transform="matrix(0.05555555555555555,0,0,0.05555555555555555,138.66666666666666,0)" xlink:href="#I"/><use transform="matrix(0.05555555555555555,0,0,0.05555555555555555,144.2222222222222,0)" xlink:href="#J"/><use transform="matrix(0.05555555555555555,0,0,0.05555555555555555,153.05555555555554,0)" xlink:href="#H"/><use transform="matrix(0.05555555555555555,0,0,0.05555555555555555,164.16666666666666,0)" xlink:href="#I"/><use transform="matrix(0.05555555555555555,0,0,0.05555555555555555,169.7222222222222,0)" xlink:href="#G"/><use transform="matrix(0.05555555555555555,0,0,0.05555555555555555,178.55555555555554,0)" xlink:href="#ad"/><use transform="matrix(0.05555555555555555,0,0,0.05555555555555555,185.16666666666666,0)" xlink:href="#I"/></g><g id="w"><use transform="matrix(0.05555555555555555,0,0,0.05555555555555555,0,0)" xlink:href="#R"/><use transform="matrix(0.05555555555555555,0,0,0.05555555555555555,5.555555555555555,0)" xlink:href="#aa"/><use transform="matrix(0.05555555555555555,0,0,0.05555555555555555,13.333333333333332,0)" xlink:href="#H"/><use transform="matrix(0.05555555555555555,0,0,0.05555555555555555,24.444444444444443,0)" xlink:href="#R"/><use transform="matrix(0.05555555555555555,0,0,0.05555555555555555,30,0)" xlink:href="#M"/><use transform="matrix(0.05555555555555555,0,0,0.05555555555555555,40,0)" xlink:href="#W"/><use transform="matrix(0.05555555555555555,0,0,0.05555555555555555,50,0)" xlink:href="#D"/><use transform="matrix(0.05555555555555555,0,0,0.05555555555555555,55.55555555555556,0)" xlink:href="#J"/><use transform="matrix(0.05555555555555555,0,0,0.05555555555555555,64.38888888888889,0)" xlink:href="#U"/><use transform="matrix(0.05555555555555555,0,0,0.05555555555555555,78.77777777777777,0)" xlink:href="#L"/><use transform="matrix(0.05555555555555555,0,0,0.05555555555555555,88.77777777777777,0)" xlink:href="#P"/><use transform="matrix(0.05555555555555555,0,0,0.05555555555555555,98.77777777777777,0)" xlink:href="#I"/><use transform="matrix(0.05555555555555555,0,0,0.05555555555555555,104.33333333333333,0)" xlink:href="#J"/><use transform="matrix(0.05555555555555555,0,0,0.05555555555555555,113.16666666666666,0)" xlink:href="#H"/><use transform="matrix(0.05555555555555555,0,0,0.05555555555555555,124.27777777777777,0)" xlink:href="#I"/><use transform="matrix(0.05555555555555555,0,0,0.05555555555555555,129.83333333333331,0)" xlink:href="#G"/><use transform="matrix(0.05555555555555555,0,0,0.05555555555555555,138.66666666666666,0)" xlink:href="#I"/><use transform="matrix(0.05555555555555555,0,0,0.05555555555555555,144.2222222222222,0)" xlink:href="#J"/><use transform="matrix(0.05555555555555555,0,0,0.05555555555555555,153.05555555555554,0)" xlink:href="#ab"/><use transform="matrix(0.05555555555555555,0,0,0.05555555555555555,165.2222222222222,0)" xlink:href="#M"/><use transform="matrix(0.05555555555555555,0,0,0.05555555555555555,175.2222222222222,0)" xlink:href="#ac"/></g><g id="x"><use transform="matrix(0.05555555555555555,0,0,0.05555555555555555,0,0)" xlink:href="#R"/><use transform="matrix(0.05555555555555555,0,0,0.05555555555555555,5.555555555555555,0)" xlink:href="#aa"/><use transform="matrix(0.05555555555555555,0,0,0.05555555555555555,13.333333333333332,0)" xlink:href="#S"/><use transform="matrix(0.05555555555555555,0,0,0.05555555555555555,27.72222222222222,0)" xlink:href="#P"/><use transform="matrix(0.05555555555555555,0,0,0.05555555555555555,37.72222222222222,0)" xlink:href="#L"/><use transform="matrix(0.05555555555555555,0,0,0.05555555555555555,47.72222222222222,0)" xlink:href="#T"/><use transform="matrix(0.05555555555555555,0,0,0.05555555555555555,57.72222222222222,0)" xlink:href="#D"/><use transform="matrix(0.05555555555555555,0,0,0.05555555555555555,63.27777777777777,0)" xlink:href="#J"/><use transform="matrix(0.05555555555555555,0,0,0.05555555555555555,72.11111111111111,0)" xlink:href="#U"/><use transform="matrix(0.05555555555555555,0,0,0.05555555555555555,86.5,0)" xlink:href="#L"/><use transform="matrix(0.05555555555555555,0,0,0.05555555555555555,96.5,0)" xlink:href="#P"/><use transform="matrix(0.05555555555555555,0,0,0.05555555555555555,106.5,0)" xlink:href="#I"/><use transform="matrix(0.05555555555555555,0,0,0.05555555555555555,112.05555555555556,0)" xlink:href="#J"/><use transform="matrix(0.05555555555555555,0,0,0.05555555555555555,120.88888888888889,0)" xlink:href="#H"/><use transform="matrix(0.05555555555555555,0,0,0.05555555555555555,132,0)" xlink:href="#I"/><use transform="matrix(0.05555555555555555,0,0,0.05555555555555555,137.55555555555554,0)" xlink:href="#G"/><use transform="matrix(0.05555555555555555,0,0,0.05555555555555555,146.38888888888889,0)" xlink:href="#I"/><use transform="matrix(0.05555555555555555,0,0,0.05555555555555555,151.94444444444443,0)" xlink:href="#J"/><use transform="matrix(0.05555555555555555,0,0,0.05555555555555555,160.77777777777777,0)" xlink:href="#H"/><use transform="matrix(0.05555555555555555,0,0,0.05555555555555555,171.88888888888889,0)" xlink:href="#I"/><use transform="matrix(0.05555555555555555,0,0,0.05555555555555555,177.44444444444443,0)" xlink:href="#G"/><use transform="matrix(0.05555555555555555,0,0,0.05555555555555555,186.27777777777777,0)" xlink:href="#ad"/><use transform="matrix(0.05555555555555555,0,0,0.05555555555555555,192.88888888888889,0)" xlink:href="#I"/></g><g id="y"><use transform="matrix(0.05555555555555555,0,0,0.05555555555555555,0,0)" xlink:href="#R"/><use transform="matrix(0.05555555555555555,0,0,0.05555555555555555,5.555555555555555,0)" xlink:href="#aa"/><use transform="matrix(0.05555555555555555,0,0,0.05555555555555555,13.333333333333332,0)" xlink:href="#S"/><use transform="matrix(0.05555555555555555,0,0,0.05555555555555555,27.72222222222222,0)" xlink:href="#P"/><use transform="matrix(0.05555555555555555,0,0,0.05555555555555555,37.72222222222222,0)" xlink:href="#L"/><use transform="matrix(0.05555555555555555,0,0,0.05555555555555555,47.72222222222222,0)" xlink:href="#T"/><use transform="matrix(0.05555555555555555,0,0,0.05555555555555555,57.72222222222222,0)" xlink:href="#D"/><use transform="matrix(0.05555555555555555,0,0,0.05555555555555555,63.27777777777777,0)" xlink:href="#J"/><use transform="matrix(0.05555555555555555,0,0,0.05555555555555555,72.11111111111111,0)" xlink:href="#U"/><use transform="matrix(0.05555555555555555,0,0,0.05555555555555555,86.5,0)" xlink:href="#L"/><use transform="matrix(0.05555555555555555,0,0,0.05555555555555555,96.5,0)" xlink:href="#P"/><use transform="matrix(0.05555555555555555,0,0,0.05555555555555555,106.5,0)" xlink:href="#I"/><use transform="matrix(0.05555555555555555,0,0,0.05555555555555555,112.05555555555556,0)" xlink:href="#J"/><use transform="matrix(0.05555555555555555,0,0,0.05555555555555555,120.88888888888889,0)" xlink:href="#H"/><use transform="matrix(0.05555555555555555,0,0,0.05555555555555555,132,0)" xlink:href="#I"/><use transform="matrix(0.05555555555555555,0,0,0.05555555555555555,137.55555555555554,0)" xlink:href="#G"/><use transform="matrix(0.05555555555555555,0,0,0.05555555555555555,146.38888888888889,0)" xlink:href="#I"/><use transform="matrix(0.05555555555555555,0,0,0.05555555555555555,151.94444444444443,0)" xlink:href="#J"/><use transform="matrix(0.05555555555555555,0,0,0.05555555555555555,160.77777777777777,0)" xlink:href="#ab"/><use transform="matrix(0.05555555555555555,0,0,0.05555555555555555,172.94444444444443,0)" xlink:href="#M"/><use transform="matrix(0.05555555555555555,0,0,0.05555555555555555,182.94444444444443,0)" xlink:href="#ac"/></g><path d="M130-224c-62 0-78 43-78 106 0 64 16 108 78 108s78-45 78-108-16-106-78-106zm0 228C53 4 15-39 15-118c-1-80 37-120 115-120s115 42 115 120C245-39 207 4 130 4" id="ae"/><path d="M75-106v92l39 5v9H13v-9l28-5v-208l-31-4v-10h177v57h-11l-6-38c-28-4-63-3-95-3v98h69l5-28h11v73h-11l-5-29H75" id="af"/><g id="z"><use transform="matrix(0.06172839506172839,0,0,0.06172839506172839,0,0)" xlink:href="#ab"/><use transform="matrix(0.06172839506172839,0,0,0.06172839506172839,13.518518518518517,0)" xlink:href="#ae"/><use transform="matrix(0.06172839506172839,0,0,0.06172839506172839,29.50617283950617,0)" xlink:href="#af"/></g><path d="M66-102c72 12-10 150 74 142v8C95 52 70 37 70-4c0-44 8-96-37-93v-8c76 4-3-150 83-145h24v8c-80-15-2 128-74 140" id="ag"/><path d="M102-55c0 60 3 115-69 103v-8c79 12 4-128 74-142-40-5-34-57-34-102 0-27-11-41-40-38v-8c44-4 69 10 69 52 0 43-7 95 38 93v8c-26 1-38 15-38 42" id="ah"/><g id="A"><use transform="matrix(0.07407407407407408,0,0,0.07407407407407408,0,0)" xlink:href="#ag"/><use transform="matrix(0.07407407407407408,0,0,0.07407407407407408,12.740740740740742,0)" xlink:href="#H"/><use transform="matrix(0.07407407407407408,0,0,0.07407407407407408,27.55555555555556,0)" xlink:href="#I"/><use transform="matrix(0.07407407407407408,0,0,0.07407407407407408,34.96296296296296,0)" xlink:href="#G"/><use transform="matrix(0.07407407407407408,0,0,0.07407407407407408,46.74074074074074,0)" xlink:href="#ad"/><use transform="matrix(0.07407407407407408,0,0,0.07407407407407408,55.55555555555556,0)" xlink:href="#I"/><use transform="matrix(0.07407407407407408,0,0,0.07407407407407408,62.96296296296296,0)" xlink:href="#ah"/></g><g id="B"><use transform="matrix(0.07407407407407408,0,0,0.07407407407407408,0,0)" xlink:href="#ag"/><use transform="matrix(0.07407407407407408,0,0,0.07407407407407408,12.740740740740742,0)" xlink:href="#ab"/><use transform="matrix(0.07407407407407408,0,0,0.07407407407407408,28.962962962962973,0)" xlink:href="#M"/><use transform="matrix(0.07407407407407408,0,0,0.07407407407407408,42.296296296296305,0)" xlink:href="#ac"/><use transform="matrix(0.07407407407407408,0,0,0.07407407407407408,55.62962962962964,0)" xlink:href="#ah"/></g></defs></g></svg>